<svg xmlns="http://www.w3.org/2000/svg" enable-background="new 0 0 1500 1500" viewBox="0 0 1500 1500"><path d="M265.77,81.12c-1.32-1.53-3.26-2.39-5.27-2.33l-29.16,0.72c-0.12,0-0.18-0.04-0.22-0.08c-0.04-0.04-0.09-0.12-0.09-0.21
				l1.28-74.27c0-2.73-2.21-4.95-4.94-4.95c-2.21,0-4.17,1.5-4.75,3.63L214,34.94l-6.67-31.03C206.84,1.65,204.82,0,202.5,0h-2.48
				c-2.71,0-4.93,2.21-4.93,4.95v30.79l-7.33-14.84c-1.2-2.43-3.97-3.72-6.64-2.98c-2.78,0.79-4.55,3.53-4.1,6.39l3.15,19.8
				l-2.84-3.99c-1.11-1.57-2.92-2.49-4.84-2.49c-0.73,0-1.48,0.14-2.16,0.41c-2.97,1.17-4.48,4.45-3.43,7.46l14.42,41.61l-7.1,13.84
				l-0.98,1.9c-0.47,0.9-0.18,1.97,0.62,2.54l0.27,0.16c0.98,0.48,2.16,0.09,2.65-0.88l0.85-1.65l7.63-14.86
				c0.24-0.49,0.28-1.05,0.11-1.57l-14.7-42.42c-0.34-0.99,0.15-2.06,1.12-2.44c0.84-0.33,1.8-0.02,2.29,0.69l6.16,8.66
				c0.72,1.01,2.01,1.39,3.16,0.92c1.14-0.47,1.81-1.65,1.61-2.87l-4.05-25.44c-0.13-0.87,0.4-1.7,1.24-1.93
				c0.8-0.22,1.63,0.17,1.98,0.91l9.87,19.99c0.54,1.12,1.77,1.71,2.96,1.43c1.22-0.28,2.06-1.35,2.06-2.58V4.95
				c0-0.53,0.42-0.96,0.94-0.96h2.48c0.44,0,0.83,0.32,0.93,0.76l7.82,36.36c0.24,1.2,1.27,2.06,2.49,2.1
				c1.28,0.05,2.31-0.75,2.64-1.93l10.08-36.59c0.11-0.41,0.49-0.7,0.91-0.7c0.53,0,0.95,0.43,0.95,0.97l-1.28,74.2
				c-0.01,1.17,0.44,2.27,1.27,3.1c0.84,0.83,1.93,1.26,3.12,1.24l29.17-0.72c0.79,0,1.62,0.33,2.15,0.96
				c0.55,0.63,0.78,1.46,0.64,2.27c-0.14,0.83-0.67,1.56-1.41,1.96l-57.36,31.5l-1,0.55c-0.97,0.54-1.33,1.75-0.79,2.71
				c0.18,0.33,0.44,0.59,0.74,0.77c0.31,0.17,0.66,0.27,1.01,0.27c0.33,0,0.66-0.08,0.96-0.25l3.01-1.66l55.34-30.39
				c1.8-0.98,3.08-2.77,3.42-4.79C267.68,84.68,267.11,82.66,265.77,81.12z"/><path d="M169.59,238.07l-2.05,5.63l-28.95,79.1l20.62,63.13l0.63,1.93c0.34,1.05-0.24,2.17-1.28,2.51
				c-0.21,0.07-0.42,0.1-0.63,0.1c-0.84,0-1.62-0.53-1.9-1.38l-0.6-1.85l-20.85-63.88c-0.14-0.42-0.13-0.89,0.02-1.31l31.03-84.75
				l0.22-0.61c0.38-1.04,1.53-1.57,2.56-1.19c0.61,0.22,1.04,0.71,1.22,1.29C169.75,237.2,169.75,237.64,169.59,238.07z"/><path d="M195.98,161.14c-1.04-0.38-1.58-1.53-1.2-2.56l0.28-0.78c-10.25,4.44-18.12,10.22-23.7,17.41
				c-10.52,13.57-13.01,31.79-7.59,55.67c0.01,0.03,0.02,0.06,0.03,0.1c0.59,2.1,1.2,4.22,1.82,6.32l0.22-0.61
				c0.38-1.04,1.53-1.57,2.56-1.19c0.61,0.22,1.04,0.71,1.22,1.29c-0.67-2.28-1.33-4.57-1.96-6.85
				c-5.12-22.62-2.87-39.72,6.86-52.29c5.29-6.81,12.84-12.3,22.77-16.5C196.88,161.29,196.42,161.3,195.98,161.14z M352.06,154.58
				c-4.4-9.26-16.22-13.13-31.61-10.37c-0.89,0.16-1.74,0.24-2.52,0.24c-3.56,0-7.06-1.47-9.59-4.03
				c-7.68-7.76-15.72-11.52-23.86-11.2c-9.47,0.37-19.27,6.34-29.1,17.76c-22.68,0.71-41.05,3.64-55.36,8.86
				c-1.72,0.62-3.36,1.28-4.96,1.96c-10.25,4.44-18.12,10.22-23.7,17.41c-10.52,13.57-13.01,31.79-7.59,55.67
				c0.01,0.03,0.02,0.06,0.03,0.1c0.59,2.1,1.2,4.22,1.82,6.32c0.62,2.12,1.26,4.26,1.91,6.38c9.24,30.1,21.49,59.12,41.09,74.32
				c1.24,0.96,2.49,1.87,3.79,2.7c6.46,4.23,13.68,7,21.79,7.93c1.63,0.19,3.27,0.28,4.91,0.28c9.24,0,18.52-2.92,26.61-8.43
				c8.12-5.54,14.4-12.64,18.67-21.09c0.37-0.71,0.27-1.57-0.25-2.17l-4.82-5.73c-6.59-7.85-9.5-17.91-7.99-27.61
				c0.28-1.8,0.69-3.37,1.2-4.7c0.54-1.38,1.73-2.32,3.2-2.53c1.51-0.22,2.94,0.37,3.86,1.58l9.92,13.01
				c0.87,1.14,2.26,1.66,3.67,1.35c1.4-0.32,2.45-1.38,2.76-2.77c3.86-17.73,3.23-35.7-1.88-53.44c-0.58-2-0.04-4.17,1.41-5.64
				c3.3-3.38,9.9-9.05,18.83-11.39c0.93-0.25,1.88-0.46,2.87-0.63c0.41-0.07,0.82-0.15,1.23-0.23c8.09-1.57,15.33-4.96,21.01-9.84
				C351.85,177.95,356.82,164.57,352.06,154.58z M336.82,185.62c-5.42,4.66-12.44,7.83-20.31,9.17c-0.5,0.09-1,0.18-1.48,0.29
				c-0.03,0-0.05,0.01-0.07,0.01c-0.09,0.02-0.17,0.04-0.25,0.06c-10.57,2.34-18.31,8.94-22.09,12.8c-2.44,2.5-3.36,6.16-2.38,9.54
				c4.85,16.83,5.51,33.89,1.96,50.71l-9.44-12.39c-1.81-2.36-4.64-3.53-7.59-3.1c-2.92,0.41-5.31,2.29-6.36,5.04
				c-0.61,1.6-1.09,3.45-1.42,5.53c-1.7,10.84,1.54,22.06,8.88,30.8l3.96,4.71c-3.95,7.33-9.57,13.52-16.76,18.42
				c-8.74,5.95-18.98,8.61-28.82,7.48c-34.85-3.98-52.61-45.62-65.04-87.88c-0.67-2.28-1.33-4.57-1.96-6.85
				c-5.12-22.62-2.87-39.72,6.86-52.29c5.29-6.81,12.84-12.3,22.77-16.5c0.08-0.03,0.16-0.06,0.24-0.1
				c14.49-6.06,34.01-9.41,58.85-10.12c0.57-0.02,1.11-0.27,1.47-0.71c9.29-10.97,18.3-16.7,26.8-17.03
				c6.99-0.27,14,3.1,20.86,10.02c3.28,3.31,7.81,5.22,12.43,5.22c1.02,0,2.1-0.1,3.22-0.3c13.52-2.42,23.73,0.63,27.31,8.16
				C352.36,164.49,347.68,176.27,336.82,185.62z M195.98,161.14c-1.04-0.38-1.58-1.53-1.2-2.56l0.28-0.78
				c-10.25,4.44-18.12,10.22-23.7,17.41c-10.52,13.57-13.01,31.79-7.59,55.67c0.01,0.03,0.02,0.06,0.03,0.1
				c0.59,2.1,1.2,4.22,1.82,6.32l0.22-0.61c0.38-1.04,1.53-1.57,2.56-1.19c0.61,0.22,1.04,0.71,1.22,1.29
				c-0.67-2.28-1.33-4.57-1.96-6.85c-5.12-22.62-2.87-39.72,6.86-52.29c5.29-6.81,12.84-12.3,22.77-16.5
				C196.88,161.29,196.42,161.3,195.98,161.14z"/><path fill="#1b2e35" d="M336.82,185.62c-5.42,4.66-12.44,7.83-20.31,9.17c-0.5,0.09-1,0.18-1.48,0.29c-0.03,0-0.05,0.01-0.07,0.01
				c-0.09,0.01-0.17,0.03-0.25,0.06c-10.57,2.34-18.31,8.94-22.09,12.8c-2.44,2.5-3.36,6.16-2.38,9.54
				c4.85,16.83,5.51,33.89,1.96,50.71l-9.44-12.39c-1.81-2.36-4.64-3.53-7.59-3.1c-2.92,0.41-5.31,2.29-6.36,5.04
				c-0.61,1.6-1.09,3.45-1.42,5.53c-1.7,10.84,1.54,22.06,8.88,30.8l3.96,4.71c-3.95,7.33-9.57,13.52-16.76,18.42
				c-8.74,5.95-18.98,8.61-28.82,7.48c-34.85-3.98-52.61-45.62-65.04-87.88c-0.67-2.28-1.33-4.57-1.96-6.85
				c-5.12-22.62-2.87-39.72,6.86-52.29c5.29-6.81,12.84-12.3,22.77-16.5c0.08-0.03,0.16-0.06,0.24-0.1
				c14.49-6.06,34.01-9.41,58.85-10.12c0.57-0.02,1.11-0.27,1.47-0.71c9.29-10.97,18.3-16.7,26.8-17.03
				c6.99-0.27,14,3.1,20.86,10.02c3.28,3.31,7.81,5.22,12.43,5.22c1.02,0,2.1-0.1,3.22-0.3c13.52-2.42,23.73,0.63,27.31,8.16
				C352.36,164.49,347.68,176.27,336.82,185.62z"/><path d="M525.78,586.63c-0.37,0.32-0.83,0.48-1.29,0.48c-0.57,0-1.13-0.24-1.53-0.7c-13.36-15.68-26.39-31.44-39-46.72
				c-0.02-0.01-0.03-0.03-0.04-0.04c-0.08-0.1-0.16-0.2-0.23-0.29c-0.01-0.01-0.01-0.02-0.02-0.02c-0.4-0.48-0.79-0.96-1.18-1.43
				c-20.83-25.24-40.67-49.25-59.85-70.45c-3.82-4.22-7.61-8.33-11.38-12.31c0,0,0,0-0.01-0.01l-0.51-0.54
				c-0.01-0.01-0.02-0.02-0.03-0.04c-7.37-7.76-14.66-15.06-21.86-21.77c-1.3-1.21-2.58-2.39-3.87-3.55
				c-1.47-1.34-2.93-2.64-4.4-3.93c-0.01,0-0.01,0-0.02-0.01c-0.22-0.2-0.45-0.39-0.67-0.59c-19.34-16.83-38.27-29.24-57.23-35.43
				c-2.07-0.68-4.13-1.43-6.04-2.14c-1.36-0.51-2.73-1-4.13-1.47c-13.62-4.59-29.22-7.51-46.11-8.75
				c-25.52-1.88-53.97,0.09-82.92,5.99c-8.52,2.09-16.83,4.57-24.93,7.44c-24.41,8.65-47.09,20.89-68.75,37.07
				c-0.32,0.24-0.64,0.48-0.96,0.72c-0.89,0.66-2.13,0.48-2.79-0.4c-0.67-0.88-0.49-2.12,0.39-2.79c0.74-0.56,1.48-1.11,2.21-1.65
				c21.06-15.58,43.11-27.5,66.77-36.07c1.26-0.46,2.51-0.9,3.77-1.33c5.85-2.03,11.8-3.85,17.86-5.47c1.84-0.5,3.69-0.97,5.55-1.43
				c0.2-0.04,0.39-0.08,0.59-0.12c39.25-7.92,77.56-8.73,109.15-2.59c6.14,1.19,12.04,2.64,17.63,4.37h0.01
				c1.6,0.48,3.15,0.99,4.7,1.53c1.13,0.39,2.24,0.79,3.35,1.2c1.88,0.7,3.88,1.45,5.88,2.09c18.52,6.03,36.93,17.79,55.62,33.66
				c1.33,1.13,2.66,2.27,3.99,3.45c9.82,8.61,19.74,18.33,29.79,28.92c1.26,1.32,2.5,2.64,3.76,3.99c1.92,2.05,3.84,4.13,5.76,6.24
				c19.83,21.69,40.29,46.44,61.82,72.5c0.3,0.37,0.61,0.75,0.92,1.12c0.68,0.83,1.36,1.65,2.04,2.47
				c12.43,15.05,25.24,30.55,38.39,45.96C526.73,584.65,526.62,585.92,525.78,586.63z"/><path d="M313.75,385.67c-0.21,0.07-0.42,0.11-0.63,0.11c-0.21,0-0.42-0.03-0.61-0.1c-0.59-0.18-1.08-0.64-1.29-1.27l-1.24-3.73
				h-0.01l-7.95-23.91c-2.81-1.57-5.72-2.98-8.76-4.26c-0.11-0.04-0.22-0.09-0.33-0.13c-0.01-0.01-0.02-0.01-0.03-0.02
				c-21.47-8.88-48.71-10.37-84.53-4.76c-1.24,0.2-2.34,0.87-3.11,1.88l-22.07,29.41l-3.37,4.5c-0.66,0.88-1.9,1.06-2.78,0.4
				c-0.89-0.66-1.07-1.91-0.4-2.79l0.42-0.56l25.01-33.35c1.15-1.53,2.72-2.62,4.52-3.15c0.38-0.13,0.77-0.22,1.17-0.28
				c0.97-0.15,1.93-0.3,2.88-0.44c33.8-5.01,60.08-3.6,81.22,4.44c1.36,0.51,2.68,1.05,3.99,1.63c3.04,1.31,5.97,2.77,8.81,4.39
				c0.43,0.24,0.75,0.64,0.91,1.1l9.12,27.43l0.32,0.95C315.35,384.2,314.79,385.33,313.75,385.67z"/><path d="M594.08,351.6l-0.01,0.06v0.02l-14.4,99.85l-0.58,3.99l-25.76,178.58c-3.28,18.22-12.97,31.06-28.77,38.22
				c-4.82,2.18-9.97,3.28-15.16,3.28c-4.39,0-8.8-0.79-13.06-2.35c-30.16-11.08-65.11-36.25-112.99-81.4v-0.01
				c-1.06-0.99-2.12-1.99-3.19-3.01c-0.4-0.37-0.62-0.89-0.62-1.45v-0.07l5.46-158.07l0.03-0.85c0.04-1.11,0.94-1.95,2.06-1.93
				c1.1,0.04,1.96,0.97,1.92,2.06l-0.15,4.27l-5.31,153.76c48.77,46.28,84,71.87,114.16,82.96c8.33,3.06,17.27,2.77,25.19-0.82
				c14.75-6.68,23.41-18.2,26.48-35.23l25.99-180.14c0.01-0.07,0.02-0.14,0.03-0.2l14.43-100.07l-34.08-4.07l-2.36-0.28
				l-36.66,105.42l-29.11,83.73l-0.37,1.07c-0.36,1.04-1.5,1.59-2.53,1.23c-0.29-0.1-0.55-0.26-0.75-0.46
				c-0.02-0.01-0.03-0.03-0.04-0.04c-0.08-0.1-0.16-0.2-0.23-0.29c-0.01-0.01-0.01-0.02-0.02-0.02c-0.31-0.5-0.4-1.14-0.19-1.74
				l1.17-3.34l27.38-78.74l1.39-3.99l36.73-105.65c0.31-0.89,1.19-1.44,2.11-1.33l1.66,0.2l4.04,0.48l32.59,3.89l1.79,0.21
				c0.53,0.06,1.02,0.34,1.34,0.77C594.01,350.54,594.15,351.07,594.08,351.6z"/><path fill="#f6aaac" d="M263.4,86.01c-0.14,0.83-0.67,1.56-1.41,1.96l-57.36,31.5l-27.01-16.45l7.63-14.86
				c0.24-0.49,0.28-1.05,0.11-1.57l-14.7-42.42c-0.34-0.99,0.15-2.06,1.12-2.44c0.84-0.33,1.8-0.02,2.29,0.69l6.16,8.66
				c0.72,1.01,2.01,1.39,3.16,0.92c1.14-0.47,1.81-1.65,1.61-2.87l-4.05-25.44c-0.13-0.87,0.4-1.7,1.24-1.93
				c0.8-0.22,1.63,0.17,1.98,0.91l9.87,19.99c0.54,1.12,1.77,1.71,2.96,1.43c1.22-0.28,2.06-1.35,2.06-2.58V4.95
				c0-0.53,0.42-0.96,0.94-0.96h2.48c0.44,0,0.83,0.32,0.93,0.76l7.82,36.36c0.24,1.2,1.27,2.06,2.49,2.1
				c1.28,0.05,2.31-0.75,2.64-1.93l10.08-36.59c0.11-0.41,0.49-0.7,0.91-0.7c0.53,0,0.95,0.43,0.95,0.97l-1.28,74.2
				c-0.01,1.17,0.44,2.27,1.27,3.1c0.84,0.83,1.93,1.26,3.12,1.24l29.17-0.72c0.79,0,1.62,0.33,2.15,0.96
				C263.31,84.37,263.54,85.19,263.4,86.01z"/><path fill="#aaff01" d="M206.77,125.45l-11.71,32.35c-10.25,4.44-18.12,10.22-23.7,17.41c-10.52,13.57-13.01,31.79-7.59,55.67
				c0.01,0.03,0.02,0.06,0.03,0.1c0.59,2.1,1.2,4.22,1.82,6.32l-31.03,84.75c-0.15,0.42-0.16,0.89-0.02,1.31l20.85,63.88
				c-23.67,8.58-45.71,20.5-66.77,36.07L54.07,320.76l116.29-217.51l3.5,2.13l0.27,0.16l29.46,17.95L206.77,125.45z"/><path d="M382.53,757.92c-6.03,2.12-12.1,4.09-18.18,5.89c-1.29,0.39-2.59,0.77-3.89,1.14c-1.68,0.48-3.36,0.95-5.05,1.4
				c-0.07,0.02-0.14,0.04-0.21,0.06c-1.26,0.34-2.52,0.67-3.79,1c-0.13,0.04-0.27,0.07-0.41,0.11c-0.59,0.15-1.19,0.3-1.79,0.45
				c-1.29,0.33-2.56,0.64-3.85,0.95c-0.29,0.07-0.58,0.14-0.87,0.21c-1.6,0.38-3.18,0.74-4.78,1.1c-0.14,0.03-0.27,0.06-0.4,0.09
				c-1.6,0.35-3.2,0.7-4.81,1.03c-1.43,0.3-2.85,0.59-4.29,0.87c-0.53,0.11-1.05,0.21-1.57,0.3c-3.1,0.6-6.21,1.15-9.33,1.65
				c-3.46,0.58-6.92,1.09-10.38,1.55c-1.02,0.14-2.03,0.27-3.05,0.39c-0.78,0.1-1.56,0.19-2.33,0.28c-0.69,0.09-1.37,0.17-2.05,0.24
				c-1.16,0.13-2.32,0.25-3.48,0.37c-0.78,0.08-1.55,0.16-2.32,0.23c-0.67,0.06-1.33,0.12-1.99,0.18c-2.39,0.22-4.79,0.4-7.19,0.56
				h-0.01c-1.73,0.13-3.45,0.23-5.18,0.32c-0.86,0.05-1.71,0.09-2.55,0.12c-0.15,0.01-0.31,0.02-0.46,0.03
				c-0.95,0.04-1.89,0.08-2.83,0.11c-0.73,0.03-1.46,0.05-2.18,0.07c-1.04,0.03-2.07,0.06-3.11,0.08c-1.17,0.02-2.32,0.04-3.48,0.05
				c-1.16,0.01-2.32,0.02-3.48,0.02c-0.6,0-1.2,0-1.81-0.01c-26.33-0.14-53.09-3.31-79.97-9.49c-14.88-3.41-29.79-7.74-44.69-12.97
				c-0.17-0.06-0.35-0.12-0.52-0.18c-1.66-0.59-2.8-2.15-2.85-3.9L133.4,752v-0.02l-1.54-49.21L85.7,427.05L50.01,321.22
				c-0.17-0.52-0.13-1.09,0.13-1.58l117.7-220.13c0.26-0.48,0.71-0.84,1.24-0.99c0.52-0.14,1.09-0.06,1.56,0.23l3.59,2.18l3.41,2.08
				l27.01,16.45l3.93,2.39l1.68,1.02c0.81,0.5,1.16,1.49,0.84,2.38l-11.06,30.57l-1.49,4.11c-0.19,0.51-0.56,0.9-1.01,1.12
				c-0.08,0.04-0.16,0.07-0.24,0.1c-0.41,0.13-0.87,0.14-1.31-0.02c-1.04-0.38-1.58-1.53-1.2-2.56l0.28-0.78l11.71-32.35l-3.18-1.94
				l-29.46-17.95l-0.27-0.16l-3.5-2.13L54.07,320.76l34.59,102.56l0.88,2.6c0.03,0.1,0.06,0.2,0.07,0.31l0.2,1.21l46.02,274.81
				c0.01,0.09,0.02,0.18,0.03,0.27l1.55,49.54c0,0.12,0.08,0.23,0.19,0.27c14.85,5.25,29.68,9.55,44.49,12.95
				c24.7,5.66,49.33,8.76,73.79,9.28c8.99,0.19,17.95,0.03,26.89-0.47c33.19-1.87,66.05-8.5,98.45-19.92
				c0.13-0.05,0.21-0.19,0.18-0.32l-3.9-21.72c-1.96-10.97-2.74-22.19-2.3-33.34l4.36-111.39v-0.07c0.04-1.11,0.98-1.96,2.06-1.91
				c1.11,0.04,1.96,0.97,1.91,2.06l-0.17,4.38v0.01l-4.19,107.08c-0.42,10.86,0.34,21.78,2.25,32.48l3.9,21.71
				C385.68,755.21,384.52,757.22,382.53,757.92z"/><path fill="#14262b" d="M173.21,822.75l3.4,52.02c0.01,0.17,0,0.34-0.03,0.51c-10.76,56.45-17.36,151.28-23.19,243.56
				c-0.01,0.13-0.03,0.26-0.07,0.39l-74.5,281.07c-0.17,0.67,0.07,1.39,0.63,1.83c0.03,0.02,0.05,0.04,0.08,0.07
				c1.32,1.05,2.62,2.04,3.92,2.98l-4.48,10.91l-0.01,0.01c-0.2,0.51-0.65,0.9-1.19,1.04c-13.15,3.48-27.85-1.4-44.93-14.94
				c-0.03-0.03-0.05-0.05-0.08-0.07c-0.56-0.44-0.8-1.16-0.63-1.83l74.5-281.07c0.04-0.13,0.06-0.26,0.07-0.39
				c5.82-92.28,12.43-187.11,23.19-243.56c0.03-0.17,0.04-0.34,0.03-0.51l-3.4-52.02l10.25-66.48c14.9,5.23,29.81,9.55,44.69,12.97
				L173.21,822.75z"/><path fill="#1b2e35" d="M507.22,1419.53c-2.56,4.01-5.6,7.44-9.13,10.29c-10.2,8.25-24.52,11.7-43.36,10.47l-62.13-195.83
				c-2.34-7.37-3.95-15-4.78-22.68l-4.98-45.95c-1.78-16.35-6.77-31.89-14.85-46.22l-84.38-149.55l-34.08-60.4
				c-0.42-0.75-1.27-1.14-2.11-0.98c-0.84,0.16-1.49,0.84-1.6,1.69c-12.91,92.94-27.83,182.43-68.18,255.64
				c-0.04,0.07-0.07,0.13-0.1,0.21l-94.09,228.94c-1.3-0.94-2.6-1.93-3.92-2.98c-0.03-0.03-0.05-0.05-0.08-0.07
				c-0.56-0.44-0.8-1.16-0.63-1.83l74.5-281.07c0.04-0.13,0.06-0.26,0.07-0.39c5.82-92.28,12.43-187.11,23.19-243.56
				c0.03-0.17,0.04-0.34,0.03-0.51l-3.4-52.02l8.26-53.52c26.88,6.18,53.64,9.36,79.97,9.49c0.61,0.01,1.21,0.01,1.81,0.01
				c1.16,0,2.32-0.01,3.48-0.02c1.17-0.01,2.32-0.03,3.48-0.05c1.04-0.02,2.07-0.05,3.11-0.08c0.73-0.02,1.46-0.04,2.18-0.07
				c0.95-0.03,1.88-0.07,2.83-0.11c0.15-0.01,0.31-0.02,0.46-0.03c0.85-0.03,1.7-0.07,2.55-0.12c1.73-0.09,3.45-0.19,5.18-0.32h0.01
				c2.4-0.16,4.8-0.34,7.19-0.56c0.67-0.06,1.33-0.12,1.99-0.18c0.78-0.07,1.55-0.15,2.32-0.23c1.16-0.12,2.32-0.24,3.48-0.37
				c0.69-0.07,1.37-0.15,2.05-0.24c0.78-0.09,1.56-0.18,2.33-0.28c1.02-0.12,2.03-0.25,3.05-0.39c3.46-0.46,6.92-0.97,10.38-1.55
				c3.11-0.5,6.21-1.05,9.33-1.65c0.52-0.09,1.04-0.19,1.57-0.3c1.43-0.28,2.86-0.56,4.29-0.87c1.61-0.33,3.2-0.67,4.81-1.03
				c0.13-0.03,0.26-0.06,0.4-0.09c1.6-0.35,3.18-0.72,4.78-1.1c0.29-0.07,0.58-0.14,0.87-0.21c1.29-0.31,2.57-0.62,3.85-0.95
				c0.6-0.15,1.2-0.3,1.79-0.45c0.14-0.04,0.28-0.07,0.41-0.11c1.27-0.32,2.52-0.66,3.79-1c0.07-0.02,0.14-0.04,0.21-0.06
				c1.69-0.45,3.36-0.92,5.05-1.4l1.09,9.91l4.46,40.84c0.01,0.14,0.04,0.27,0.08,0.4l86.26,264.67c3.56,10.94,6.31,22.2,8.19,33.47
				c9.44,57.05,16.17,121.25,20.54,196.26c0.01,0.12,0.02,0.23,0.05,0.35L507.22,1419.53z"/><path d="M511.05,1420.93c-0.22,0.37-0.45,0.73-0.68,1.08c-3.03,4.66-6.7,8.6-11.01,11.81c-9.52,7.11-22.16,10.69-37.79,10.69
				c-2.2,0-4.48-0.07-6.81-0.22c-0.55-0.03-1.12-0.07-1.68-0.11c-0.81-0.06-1.5-0.61-1.75-1.39l-0.17-0.55l-62.38-196.57
				c-2.41-7.62-4.08-15.51-4.94-23.46l-4.98-45.95c-1.72-15.81-6.54-30.84-14.36-44.69l-81.95-145.23l-33.61-59.57
				c-12.77,91.2-27.97,178.83-67.77,251.07L86.8,1407.53l-3.99,9.69l-0.16,0.39c-0.66,1.62-2.04,2.86-3.72,3.34
				c-0.04,0.02-0.09,0.03-0.13,0.04c-13.8,3.65-28.86-0.85-45.98-13.76c-0.84-0.64-1.69-1.3-2.54-1.97
				c-0.35-0.28-0.66-0.6-0.93-0.94c-1.13-1.4-1.54-3.27-1.07-5.04l74.45-280.89c5.82-92.21,12.42-186.94,23.19-243.61l-3.4-51.99
				c-0.01-0.14,0-0.29,0.02-0.43L133.4,752v-0.02l0.03-0.17c0.17-1.09,1.19-1.85,2.27-1.67c1.09,0.16,1.84,1.19,1.67,2.27
				l-0.59,3.84l-10.25,66.48l3.4,52.02c0.01,0.17,0,0.34-0.03,0.51c-10.76,56.45-17.36,151.28-23.19,243.56
				c-0.01,0.13-0.03,0.26-0.07,0.39l-74.5,281.07c-0.17,0.67,0.07,1.39,0.63,1.83c0.03,0.02,0.05,0.04,0.08,0.07
				c17.08,13.54,31.78,18.42,44.93,14.94c0.54-0.14,0.99-0.53,1.19-1.04l0.01-0.01l4.48-10.91l94.09-228.94
				c0.03-0.08,0.06-0.14,0.1-0.21c40.35-73.2,55.27-162.7,68.18-255.64c0.11-0.85,0.76-1.53,1.6-1.69c0.85-0.16,1.7,0.23,2.11,0.98
				l34.08,60.4l84.38,149.55c8.08,14.32,13.08,29.87,14.85,46.22l4.98,45.95c0.83,7.68,2.43,15.31,4.78,22.68l62.13,195.83
				c18.84,1.23,33.16-2.22,43.36-10.47c3.53-2.85,6.56-6.28,9.13-10.29l-26.1-108.68c-0.03-0.12-0.04-0.23-0.05-0.35
				c-4.37-75.01-11.09-139.21-20.54-196.26c-1.87-11.27-4.63-22.53-8.19-33.47L366.09,816.1c-0.04-0.13-0.07-0.26-0.08-0.4
				l-4.46-40.84l-1.09-9.91l-0.26-2.35c-0.12-1.1,0.68-2.07,1.77-2.19c1.07-0.12,2.08,0.67,2.2,1.77l0.18,1.65l1.14,10.42
				l4.46,40.83l86.19,264.47c3.63,11.13,6.43,22.59,8.33,34.05c9.46,57.15,16.2,121.43,20.58,196.51l25.92,107.95l0.33,1.37
				C511.42,1419.93,511.33,1420.47,511.05,1420.93z"/><path d="M616.86,1450.32c0,4.1-1.75,8.98-5.64,10.66l-41.82,18.07c-10.79,4.66-23.84,7.12-39.89,7.52l-74.79,1.86h-0.19
				c-4.12,0-7.58-3.32-7.76-7.49c-0.14-3.23-0.14-6.51-0.01-9.82c0-0.09,0.01-0.19,0.02-0.29c0.39-9.29,1.87-18.86,4.4-28.59
				c0.04-0.19,0.09-0.37,0.14-0.56c0.28-1.07,1.37-1.71,2.43-1.43c1.07,0.29,1.71,1.38,1.43,2.44c-0.14,0.53-0.28,1.06-0.41,1.59
				c-2.13,8.5-3.45,16.86-3.92,25c-0.08,1.34-0.13,2.67-0.16,4c-0.07,2.52-0.05,5.02,0.06,7.49c0.09,2.11,1.79,3.7,3.87,3.67
				l74.79-1.86c15.54-0.39,28.11-2.74,38.41-7.19l41.83-18.07c2.12-0.92,3.23-4.22,3.23-7c0-2.35-1.28-4.47-3.29-5.58
				c-0.36-0.22-0.76-0.39-1.17-0.52c-0.97-0.31-1.93-0.63-2.89-0.93c-34.68-11.07-65.84-18.04-95.15-21.28
				c-0.41-0.05-0.83-0.1-1.24-0.14c-1.09-0.12-1.88-1.11-1.77-2.19c0.12-1.1,1.1-1.89,2.19-1.78c0.46,0.05,0.93,0.1,1.4,0.15
				c30.34,3.37,62.64,10.7,98.68,22.37c0.03,0.01,0.06,0.02,0.08,0.03C613.99,1441.88,616.86,1445.83,616.86,1450.32z"/><path fill="#f59024" d="M612.87,1450.32c0,2.78-1.11,6.08-3.23,7l-41.83,18.07c-10.3,4.45-22.87,6.8-38.41,7.19l-74.79,1.86
				c-2.08,0.03-3.78-1.56-3.87-3.67c-0.11-2.47-0.13-4.97-0.06-7.49c21.56,2.2,40.24,3.31,56.72,3.31c13.72,0,25.93-0.77,37.02-2.28
				c29.95-4.1,51.29-13.78,65.16-29.58C611.59,1445.85,612.87,1447.97,612.87,1450.32z"/><path fill="#f59024" d="M605.52,1443.29c-31.21,33.68-98.52,31.79-154.68,26c0.47-8.14,1.79-16.51,3.92-25
				c2.33,0.15,4.61,0.22,6.81,0.22c22.69,0,39.08-7.55,48.8-22.5C539.67,1425.25,570.84,1432.22,605.52,1443.29z"/><path d="M610.55,1443.6c-0.32,0.38-0.65,0.76-0.98,1.14c-13.86,15.8-35.21,25.48-65.16,29.58c-11.09,1.52-23.3,2.28-37.02,2.28
				c-16.48,0-35.16-1.11-56.72-3.31c-0.71-0.07-1.43-0.14-2.14-0.22c-1.01-0.11-1.76-0.95-1.79-1.94c0-0.08,0-0.16,0.01-0.25
				c0-0.01,0-0.03,0.01-0.04c0.13-1.08,1.08-1.85,2.18-1.74c0.63,0.07,1.26,0.13,1.88,0.19c56.16,5.78,123.47,7.68,154.68-26
				c0.68-0.74,1.34-1.49,1.98-2.25c0.54-0.64,1.39-0.86,2.13-0.62c0.03,0.01,0.06,0.02,0.08,0.03c0.21,0.08,0.41,0.19,0.59,0.35
				C611.15,1441.51,611.26,1442.76,610.55,1443.6z"/><path d="M83.29,1457.33c0,0.07-0.01,0.14-0.03,0.21c-0.02,0.08-0.03,0.16-0.05,0.24c-1.43,6.89-5.47,13.01-11.29,16.79
				c-5.82,3.76-13.01,5.7-20.5,5.7c-4.18,0-8.46-0.61-12.65-1.85c-10.96-3.23-18.39-13.35-18.89-24.54v-0.11
				c-0.09-2.17,0.08-4.39,0.54-6.6l8.93-42.86l0.22-1.04c0.22-1.08,1.28-1.77,2.35-1.55c0.35,0.07,0.66,0.24,0.92,0.46
				c0.52,0.46,0.78,1.18,0.63,1.91l-0.65,3.13l-8.49,40.76c-0.28,1.34-0.44,2.67-0.47,4.01c-0.05,1.36,0.03,2.69,0.23,4.01
				c1.24,8.6,7.26,16.07,15.82,18.59c10.56,3.13,21.72,1.86,29.83-3.38c4.34-2.8,7.5-7.15,9.03-12.14c0.39-1.28,0.67-2.59,0.84-3.94
				c0.14-1.18,0.2-2.36,0.17-3.56l-0.85-30.63l-0.11-4.04c-0.01-0.3,0.04-0.58,0.15-0.83c0.29-0.71,0.97-1.21,1.79-1.23
				c1.08-0.06,2.01,0.84,2.04,1.94l0.01,0.42l0.96,34.24C83.83,1453.45,83.66,1455.43,83.29,1457.33z"/><path fill="#f59024" d="M78.77,1459.08c-1.53,4.99-4.69,9.34-9.03,12.14c-8.11,5.25-19.27,6.51-29.83,3.38
				c-8.56-2.52-14.58-9.99-15.82-18.59L78.77,1459.08z"/><path fill="#f59024" d="M79.78,1451.58c0.03,1.2-0.03,2.38-0.17,3.56L23.87,1452c0.03-1.34,0.19-2.67,0.47-4.01l8.49-40.76
				c17.11,12.92,32.17,17.41,45.98,13.76c0.04-0.01,0.09-0.02,0.13-0.04L79.78,1451.58z"/><path d="M83.29,1457.33c0,0.07-0.01,0.14-0.03,0.21c-0.02,0.08-0.03,0.16-0.05,0.24c-0.25,0.84-1.02,1.44-1.91,1.44h-0.11
				l-2.41-0.14l-54.67-3.07l-2.33-0.13c-1.06-0.06-1.88-0.95-1.88-1.99v-0.11c0.06-1.1,1.03-1.92,2.1-1.88l1.87,0.11l55.74,3.14
				l1.8,0.1C82.5,1455.3,83.35,1456.24,83.29,1457.33z"/><path d="M633.48,275.73c0,0.46-0.05,0.91-0.15,1.35c-3.04,13.65-11.09,25.93-24.61,37.54c-4.96,4.26-8.52,10.21-10.01,16.76
				l-4.63,20.23l-0.01,0.06v0.02l-0.02,0.08c-0.21,0.93-1.04,1.56-1.95,1.56c-0.15,0-0.3-0.02-0.45-0.05
				c-1.07-0.25-1.75-1.32-1.5-2.39l0.4-1.75l4.26-18.64c1.69-7.37,5.7-14.08,11.31-18.9c12.84-11.02,20.47-22.59,23.31-35.38
				c0.04-0.15,0.06-0.31,0.06-0.48c0-0.79-0.43-1.46-1.14-1.81c-0.7-0.35-1.5-0.27-2.11,0.22l-11.91,9.25
				c-0.06,0.05-0.12,0.1-0.18,0.14l-3.72,2.88c-0.06,0.06-0.14,0.12-0.22,0.18l-1.16,0.9c-3.1,2.41-6.47,4.69-10.3,6.97
				c-0.53,0.31-1.05,0.64-1.56,0.98c-11.32,7.37-18.79,19.34-23.43,37.48c-0.27,1.07-1.36,1.71-2.42,1.44
				c-1.07-0.27-1.72-1.36-1.44-2.42c4.66-18.26,12.15-30.67,23.39-38.67c1.08-0.77,2.19-1.5,3.34-2.18
				c0.02-0.01,0.05-0.03,0.07-0.04c3.66-2.18,6.87-4.35,9.82-6.64c0.03-0.02,0.05-0.04,0.08-0.06l3.12-2.42l1.31-1.02l3.99-3.1
				l8.26-6.41l0.5-0.39c1.03-0.8,2.25-1.23,3.49-1.26c0.96-0.04,1.93,0.17,2.83,0.61C632.19,271.36,633.48,273.43,633.48,275.73z"/><path fill="#f6aaac" d="M623.29,242.65v28.73l-8.26,6.41v-35.15c0-2.27,1.85-4.13,4.12-4.13c0.17,0,0.33,0.01,0.49,0.03
				c0.09,0.02,0.18,0.03,0.28,0.04c0.81,0.15,1.56,0.55,2.15,1.15C622.86,240.52,623.29,241.56,623.29,242.65z"/><path d="M627.28,242.65v29.73c0,1.1-0.9,1.99-1.99,1.99c-1.11,0-1.99-0.9-1.99-1.99v-29.73c0-1.1-0.43-2.13-1.22-2.91
				c-0.6-0.6-1.35-1-2.15-1.15c-0.1-0.01-0.19-0.02-0.28-0.04c-0.16-0.02-0.32-0.03-0.49-0.03c-2.27,0-4.12,1.86-4.12,4.13v39.23
				c0,0.61-0.27,1.15-0.7,1.52c-0.06,0.05-0.12,0.1-0.18,0.14c-0.32,0.22-0.71,0.34-1.12,0.34c-1.11,0-1.99-0.89-1.99-1.99v-39.23
				c0-3.49,2.21-6.47,5.31-7.62c0.88-0.32,1.82-0.5,2.8-0.5c0.71,0,1.4,0.09,2.06,0.27c1.39,0.36,2.65,1.08,3.68,2.11
				C626.43,238.44,627.28,240.49,627.28,242.65z"/><path fill="#f6aaac" d="M606.53,284.4c-2.95,2.29-6.16,4.46-9.82,6.64c-0.02,0.01-0.05,0.03-0.07,0.04l-0.81-1.19
				c-2.36-3.45-4.75-6.94-7.03-10.35c-6.23-9.38-11.62-18.19-13.29-24.19c-0.4-1.42,0.02-2.84,1.13-3.79
				c1.07-0.93,2.49-1.13,3.81-0.54C590.81,255.66,603.36,278.41,606.53,284.4z"/><path d="M610.43,286.42c-0.06,0.06-0.14,0.12-0.22,0.18c-0.08,0.06-0.16,0.11-0.25,0.15c-0.99,0.49-2.18,0.09-2.67-0.89
				c-0.02-0.04-0.29-0.56-0.76-1.46c-3.17-5.99-15.73-28.74-26.09-33.37c-1.32-0.59-2.74-0.39-3.81,0.54
				c-1.11,0.95-1.53,2.37-1.13,3.79c1.68,5.99,7.06,14.8,13.29,24.19c2.28,3.41,4.67,6.9,7.03,10.35l0.81,1.19l1.09,1.59
				c0.62,0.91,0.39,2.15-0.53,2.77c-0.34,0.23-0.73,0.35-1.12,0.35c-0.64,0-1.27-0.31-1.66-0.88l-1.13-1.65l-0.76-1.12
				c-2.35-3.43-4.67-6.82-6.86-10.1c-1.92-2.89-3.76-5.7-5.44-8.4c-4.1-6.6-7.26-12.52-8.58-17.21c-0.82-2.9,0.09-5.92,2.35-7.89
				c2.24-1.93,5.34-2.37,8.06-1.16c11.28,5.05,23.88,27.41,27.66,34.53c0.64,1.2,1.03,1.96,1.12,2.14
				C611.26,284.87,611.07,285.82,610.43,286.42z"/><path fill="#f6aaac" d="M629.49,275.73c0,0.17-0.02,0.33-0.06,0.48c-2.84,12.79-10.47,24.36-23.31,35.38
				c-5.61,4.82-9.62,11.53-11.31,18.9l-4.26,18.64l-32.59-3.89c-1.57-18.3,2.53-32.48,12.5-43.33c0.51-0.55,0.66-1.33,0.41-2.02
				c-0.25-0.7-0.87-1.2-1.61-1.3l-12.51-1.71c-0.69-0.1-1.25-0.62-1.41-1.3c-0.11-0.5,0.01-1.03,0.34-1.43
				c0.33-0.4,0.8-0.63,1.34-0.62l19.82,0.42h0.06c1.21,0,2.26-0.77,2.63-1.93c0.38-1.18-0.06-2.44-1.09-3.13l-21.03-14.16
				c-1.11-0.75-1.54-2.17-1-3.33c0.4-0.86,1.01-1.35,1.96-1.6c6.38-1.62,21.6,8.1,27.3,12.25c2.19,3.28,4.51,6.67,6.86,10.1
				l0.76,1.12c-11.24,8-18.73,20.41-23.39,38.67c-0.28,1.07,0.37,2.15,1.44,2.42c1.07,0.27,2.15-0.37,2.42-1.44
				c4.64-18.14,12.11-30.11,23.43-37.48c0.51-0.34,1.03-0.67,1.56-0.98c3.83-2.28,7.2-4.56,10.3-6.97l1.16-0.9
				c0.08-0.06,0.16-0.12,0.22-0.18l3.72-2.88c0.06-0.04,0.12-0.09,0.18-0.14l11.91-9.25c0.62-0.49,1.42-0.57,2.11-0.22
				C629.06,274.28,629.49,274.95,629.49,275.73z"/><path d="M588.74,281.81c-0.65,0.89-1.9,1.08-2.79,0.43c-0.09-0.06-0.18-0.13-0.27-0.19c-5.69-4.15-20.91-13.86-27.3-12.25
				c-0.96,0.25-1.57,0.74-1.96,1.6c-0.54,1.16-0.11,2.58,1,3.33l21.03,14.16c1.03,0.69,1.47,1.95,1.09,3.13
				c-0.37,1.17-1.43,1.93-2.63,1.93h-0.06l-19.82-0.42c-0.54-0.01-1.01,0.22-1.34,0.62c-0.33,0.4-0.45,0.93-0.34,1.43
				c0.16,0.68,0.72,1.2,1.41,1.3l12.51,1.71c0.74,0.1,1.36,0.6,1.61,1.3c0.25,0.7,0.1,1.48-0.41,2.02
				c-9.96,10.85-14.06,25.03-12.5,43.33c0.04,0.53,0.09,1.06,0.15,1.59c0.11,1.1-0.69,2.07-1.79,2.18c-0.07,0.01-0.13,0.01-0.2,0.01
				c-0.13,0-0.25-0.01-0.37-0.03c-0.86-0.16-1.53-0.86-1.62-1.76c-0.09-0.83-0.16-1.66-0.22-2.47
				c-1.31-17.34,2.44-31.68,11.18-42.73l-8.89-1.21c-2.32-0.32-4.24-2.07-4.76-4.37c-0.38-1.71,0.03-3.47,1.14-4.83
				c1.12-1.36,2.77-2.12,4.51-2.07l15.67,0.33l-17.58-11.85c-2.72-1.84-3.75-5.42-2.38-8.34c0.9-1.92,2.48-3.22,4.59-3.76
				c5.96-1.53,15.83,3.43,22.85,7.71c4.12,2.5,7.27,4.78,8.07,5.37c0.2,0.15,0.36,0.33,0.49,0.53
				C589.25,280.21,589.25,281.12,588.74,281.81z"/><path fill="#aaff01" d="M309.97,380.68c-34.34-10.55-79.9-11.24-126.78-1.78l22.07-29.41c0.77-1.02,1.87-1.69,3.11-1.88
				c35.82-5.62,63.06-4.12,84.53,4.76c0.01,0.01,0.02,0.01,0.03,0.02c0.11,0.04,0.22,0.09,0.33,0.13c3.03,1.28,5.94,2.69,8.76,4.26
				L309.97,380.68z"/><path d="M344.96,269.07l-8.2,10.07c-0.38,0.46-0.59,1.05-0.59,1.66v42.9c0,1.84-1.02,3.48-2.66,4.3
				c-9.08,4.55-20.72,4.65-36.65,0.31c-0.34-0.09-0.58,0.05-0.7,0.14c-0.12,0.08-0.31,0.28-0.31,0.62v21.55
				c0,1.11-0.9,1.99-1.99,1.99c-0.21,0-0.41-0.03-0.59-0.09c-0.11-0.04-0.22-0.09-0.33-0.13c-0.01-0.01-0.02-0.01-0.03-0.02
				c-0.63-0.34-1.05-1-1.05-1.76v-21.55c0-1.5,0.68-2.88,1.88-3.79c1.2-0.92,2.72-1.22,4.17-0.82c14.92,4.06,25.67,4.05,33.82-0.02
				c0.28-0.15,0.46-0.43,0.46-0.74v-42.9c0-1.52,0.53-3,1.49-4.18l8.19-10.07c0.35-0.42,0.33-1.05-0.04-1.46l-11.65-12.69
				c-2.77-3.02-4.31-6.94-4.31-11.05v-14.29c0-4.97-1.3-9.86-3.77-14.17l-7.78-13.55l-0.75-1.3c-0.55-0.95-0.22-2.17,0.74-2.72
				c0.14-0.08,0.28-0.14,0.42-0.18c0.08-0.02,0.16-0.04,0.25-0.06c0.02,0,0.04-0.01,0.07-0.01c0.77-0.1,1.58,0.27,1.98,0.99
				l1.39,2.42l7.14,12.43c2.81,4.91,4.3,10.49,4.3,16.16v14.29c0,3.1,1.16,6.06,3.25,8.35l11.66,12.7
				C346.46,264.26,346.55,267.12,344.96,269.07z"/><path d="M516.82,453.53c0,0.21-0.03,0.41-0.09,0.6c-0.25,0.81-1.02,1.4-1.91,1.4h-102.4c-0.43,0-0.83-0.13-1.16-0.37
				c0,0,0,0-0.01-0.01c-0.2-0.14-0.38-0.33-0.51-0.54c-0.01-0.01-0.02-0.02-0.03-0.04c-0.19-0.3-0.29-0.66-0.29-1.04
				c0-1.1,0.9-1.99,1.99-1.99h102.4C515.93,451.54,516.82,452.43,516.82,453.53z"/><path fill="#abef03" d="M282.76,774.08c-47.88,2.69-96.43-4.56-145.17-21.75c-0.11-0.04-0.19-0.15-0.19-0.27l-1.55-49.54
				c-0.01-0.09-0.02-0.18-0.03-0.27L89.8,427.44c21.65-16.18,44.33-28.42,68.75-37.07c8.11-2.87,16.42-5.35,24.93-7.44
				c28.95-5.9,57.4-7.88,82.92-5.99c-14.29,0.96-29.05,2.96-43.94,5.99c-8.52,2.09-16.83,4.57-24.93,7.44
				c-24.41,8.65-47.09,20.89-68.75,37.07l46.02,274.81c0.01,0.09,0.02,0.18,0.03,0.27l1.55,49.54c0,0.12,0.08,0.23,0.19,0.27
				C212.13,764.86,247.58,772.12,282.76,774.08z"/><path fill="#aaff01" d="M377.48,732.12l3.9,21.72c0.03,0.13-0.05,0.27-0.18,0.32c-32.39,11.42-65.26,18.05-98.45,19.92
				c-35.18-1.95-70.63-9.22-106.2-21.75c-0.11-0.04-0.19-0.15-0.19-0.27l-1.55-49.54c-0.01-0.09-0.02-0.18-0.03-0.27l-46.02-274.81
				c21.65-16.18,44.33-28.42,68.75-37.07c8.11-2.87,16.42-5.35,24.93-7.44c14.89-3.03,29.65-5.04,43.94-5.99
				c16.88,1.24,32.48,4.16,46.11,8.75c1.4,0.47,2.77,0.96,4.13,1.47c1.91,0.72,3.97,1.47,6.04,2.14
				c18.96,6.18,37.89,18.6,57.23,35.43c0.18,0.25,0.41,0.45,0.67,0.59c0.01,0.01,0.01,0.01,0.02,0.01c1.47,1.29,2.93,2.59,4.4,3.93
				l-5.46,158.07v0.07l-4.36,111.39C374.74,709.93,375.52,721.15,377.48,732.12z"/><path fill="#aaff01" d="M589.84,353.06l-14.43,100.07c-0.01,0.06-0.02,0.13-0.03,0.2l-25.99,180.14
				c-3.07,17.02-11.73,28.54-26.48,35.23c-7.92,3.59-16.87,3.88-25.19,0.82c-30.16-11.09-65.39-36.68-114.16-82.96l5.31-153.76
				c7.2,6.71,14.49,14.01,21.86,21.77c0.01,0.02,0.02,0.03,0.03,0.04c0.13,0.21,0.31,0.4,0.51,0.54c0.01,0.01,0.01,0.01,0.01,0.01
				c22.71,24.01,46.25,52.5,71.23,82.76c0.39,0.47,0.78,0.95,1.18,1.43c0.01,0,0.01,0.01,0.02,0.02c0.07,0.09,0.15,0.19,0.23,0.29
				c0.01,0.01,0.02,0.03,0.04,0.04c12.61,15.28,25.63,31.04,39,46.72c0.4,0.46,0.96,0.7,1.53,0.7c0.46,0,0.92-0.16,1.29-0.48
				c0.84-0.71,0.95-1.97,0.23-2.81c-13.14-15.41-25.96-30.91-38.39-45.96l29.11-83.73l36.66-105.42l2.36,0.28L589.84,353.06z"/><path d="M903.01,44.96v367.43c0,23.79-19.36,43.13-43.14,43.13H577.36c-1.11,0-1.99-0.89-1.99-1.99c0-0.07,0-0.14,0.01-0.2
				c0.01-0.07,0.02-0.14,0.03-0.2c0.19-0.91,0.99-1.6,1.96-1.6h282.51c21.58,0,39.16-17.56,39.16-39.15V44.96
				c0-21.58-17.57-39.15-39.16-39.15H422.67c-21.58,0-39.15,17.56-39.15,39.15v378.6c0,1.1-0.9,1.99-1.99,1.99
				c-0.34,0-0.66-0.09-0.94-0.24c-0.01,0-0.01,0-0.02-0.01c-0.26-0.14-0.49-0.34-0.67-0.59c-0.24-0.33-0.37-0.73-0.37-1.16V44.96
				c0-23.79,19.35-43.13,43.13-43.13h437.19C883.66,1.83,903.01,21.17,903.01,44.96z"/><path d="M480.14,265.29c-0.78-1.09-1.7-2.06-2.73-2.91c-2.61-2.14-5.96-3.43-9.6-3.43c-8.38,0-15.2,6.82-15.2,15.2
					s6.82,15.2,15.2,15.2c8.39,0,15.2-6.82,15.2-15.2C483,270.85,481.95,267.79,480.14,265.29z M467.8,285.36
					c-6.18,0-11.21-5.03-11.21-11.21c0-6.18,5.03-11.21,11.21-11.21c6.18,0,11.21,5.03,11.21,11.21
					C479.01,280.33,473.99,285.36,467.8,285.36z"/><circle cx="467.8" cy="274.15" r="11.21" fill="#f59024"/><path d="M570.23,157.99c-8.39,0-15.2,6.82-15.2,15.2c0,2.84,0.79,5.52,2.15,7.8c0.7,1.16,1.54,2.21,2.51,3.14
					c2.72,2.63,6.44,4.26,10.53,4.26c3.06,0,5.92-0.92,8.31-2.49c1.13-0.73,2.14-1.61,3.03-2.6c2.39-2.68,3.85-6.22,3.85-10.1
					C585.42,164.81,578.61,157.99,570.23,157.99z M559.02,173.19c0-6.18,5.03-11.21,11.21-11.21c6.17,0,11.2,5.03,11.2,11.21
					c0,3.31-1.44,6.28-3.72,8.35c-0.06,0.05-0.12,0.1-0.18,0.16c-1.96,1.68-4.52,2.7-7.3,2.7
					C564.05,184.4,559.02,179.37,559.02,173.19z"/><path fill="#f59024" d="M581.43,173.19c0,3.31-1.44,6.28-3.72,8.35c-0.06,0.05-0.12,0.1-0.18,0.16c-1.96,1.68-4.52,2.7-7.3,2.7
					c-6.18,0-11.21-5.03-11.21-11.21c0-6.18,5.03-11.21,11.21-11.21C576.4,161.98,581.43,167,581.43,173.19z"/><path d="M668.07,276.41c-0.83-1.04-1.8-1.97-2.87-2.76c-2.52-1.87-5.64-2.97-9.02-2.97c-2.24,0-4.39,0.49-6.3,1.38
					c-1.24,0.56-2.37,1.28-3.4,2.12c-3.35,2.79-5.5,6.99-5.5,11.69c0,8.39,6.82,15.2,15.2,15.2c8.38,0,15.2-6.81,15.2-15.2
					C671.38,282.3,670.14,279.01,668.07,276.41z M656.18,297.08c-6.18,0-11.21-5.03-11.21-11.21c0-6.17,5.03-11.2,11.21-11.2
					c6.18,0,11.21,5.03,11.21,11.2C667.39,292.05,662.37,297.08,656.18,297.08z"/><path fill="#f59024" d="M667.39,285.87c0,6.18-5.03,11.21-11.21,11.21c-6.18,0-11.21-5.03-11.21-11.21c0-6.17,5.03-11.2,11.21-11.2
					C662.37,274.67,667.39,279.69,667.39,285.87z"/><path d="M724.25,192.48c-8.39,0-15.2,6.82-15.2,15.2c0,4.2,1.72,8.02,4.49,10.77c0.95,0.94,2.01,1.76,3.18,2.42
					c2.21,1.28,4.79,2,7.53,2c5.1,0,9.6-2.52,12.37-6.38c0.78-1.08,1.41-2.25,1.87-3.52c0.62-1.65,0.96-3.43,0.96-5.3
					C739.45,199.3,732.63,192.48,724.25,192.48z M724.25,218.89c-6.18,0-11.21-5.03-11.21-11.21c0-6.18,5.03-11.21,11.21-11.21
					c6.18,0,11.21,5.03,11.21,11.21c0,1.87-0.46,3.63-1.27,5.18c-0.01,0-0.01,0.01-0.01,0.01c-0.03,0.05-0.05,0.1-0.08,0.16
					C732.21,216.51,728.5,218.89,724.25,218.89z"/><path fill="#f59024" d="M735.46,207.68c0,1.87-0.46,3.63-1.27,5.18c-0.01,0-0.01,0.01-0.01,0.01c-0.03,0.05-0.05,0.1-0.08,0.16
					c-1.9,3.49-5.61,5.86-9.85,5.86c-6.18,0-11.21-5.03-11.21-11.21c0-6.18,5.03-11.21,11.21-11.21
					C730.43,196.47,735.46,201.49,735.46,207.68z"/><path d="M795.4,228.15c-1-0.89-2.12-1.63-3.33-2.21c-2-0.99-4.26-1.54-6.64-1.54c-5.54,0-10.38,2.97-13.05,7.4
					c-0.68,1.15-1.22,2.38-1.59,3.69c-0.37,1.31-0.57,2.68-0.57,4.11c0,8.39,6.82,15.2,15.2,15.2c8.38,0,15.2-6.81,15.2-15.2
					C800.63,235.03,798.6,230.93,795.4,228.15z M785.43,250.81c-6.18,0-11.21-5.03-11.21-11.21c0-1.53,0.31-2.99,0.86-4.32
					c0.01-0.01,0.01-0.02,0.02-0.04c1.71-4.02,5.69-6.85,10.33-6.85c2.29,0,4.43,0.69,6.2,1.88c0.03,0.02,0.06,0.05,0.09,0.07
					c2.96,2.01,4.92,5.42,4.92,9.27C796.64,245.78,791.61,250.81,785.43,250.81z"/><path fill="#f59024" d="M796.64,239.6c0,6.18-5.03,11.21-11.21,11.21c-6.18,0-11.21-5.03-11.21-11.21c0-1.53,0.31-2.99,0.86-4.32
					c0.01-0.01,0.01-0.02,0.02-0.04c1.71-4.02,5.69-6.85,10.33-6.85c2.29,0,4.43,0.69,6.2,1.88c0.03,0.02,0.06,0.05,0.09,0.07
					C794.68,232.35,796.64,235.75,796.64,239.6z"/><path d="M561.17,182.62l-1.48,1.51l-79.56,81.16l-1.24,1.27c-0.39,0.4-0.91,0.6-1.43,0.6c-0.51,0-1.01-0.19-1.4-0.57
				c-0.79-0.77-0.8-2.03-0.03-2.82l1.36-1.39l79.78-81.39l1.14-1.16c0.78-0.79,2.03-0.81,2.82-0.03
				C561.93,180.57,561.94,181.84,561.17,182.62z"/><path d="M650.53,276.17c-0.36,0.28-0.79,0.42-1.22,0.42c-0.6,0-1.19-0.27-1.58-0.78l-1.26-1.64l-19.2-24.94l-3.58-4.66
				c-0.28-0.37-0.41-0.79-0.41-1.22c0-0.6,0.27-1.19,0.78-1.58c0.87-0.68,2.12-0.51,2.79,0.36l0.42,0.55l22.6,29.36l1.02,1.33
				C651.56,274.25,651.4,275.51,650.53,276.17z"/><path d="M621.29,238.18c-0.36,0.28-0.79,0.42-1.21,0.42c-0.06,0-0.12,0-0.17-0.01c-0.1-0.01-0.19-0.02-0.28-0.04
				c-0.44-0.1-0.85-0.35-1.14-0.73l-2.15-2.79l-37.81-49.14l-1.2-1.56c-0.62-0.82-0.53-1.95,0.19-2.64
				c0.06-0.06,0.12-0.11,0.18-0.16c0.87-0.67,2.12-0.51,2.79,0.37l1.07,1.39l39.64,51.51l0.45,0.59
				C622.33,236.26,622.17,237.52,621.29,238.18z"/><path d="M717.86,219.57l-1.14,1.3l-48.65,55.54l-1.17,1.33c-0.39,0.46-0.94,0.69-1.5,0.69c-0.47,0-0.94-0.17-1.32-0.5
				c-0.83-0.73-0.91-1.98-0.18-2.81l1.29-1.47l48.34-55.2l1.32-1.5c0.73-0.84,1.98-0.92,2.81-0.19
				C718.5,217.49,718.59,218.75,717.86,219.57z"/><path d="M775.09,235.24c-0.01,0.02-0.01,0.03-0.02,0.04c-0.03,0.08-0.07,0.16-0.11,0.24c-0.36,0.66-1.04,1.03-1.75,1.03
				c-0.32,0-0.66-0.08-0.97-0.25l-1.46-0.81l-34.18-19l-1.66-0.92c-0.92-0.51-1.27-1.63-0.86-2.55c0.03-0.06,0.05-0.11,0.08-0.16
				c0,0,0-0.01,0.01-0.01c0.54-0.96,1.75-1.31,2.7-0.77l1.6,0.89l33.89,18.83l1.82,1.01C775.06,233.3,775.43,234.34,775.09,235.24z"/><path d="M818.76,185.76l-1.28,2.31l-22.08,40.07l-0.82,1.49c-0.36,0.66-1.05,1.03-1.75,1.03c-0.33,0-0.66-0.08-0.97-0.24
				c-0.05-0.03-0.1-0.06-0.15-0.09c-0.03-0.02-0.06-0.05-0.09-0.07c-0.78-0.59-1.03-1.68-0.54-2.55l0.98-1.78l21.87-39.68l1.33-2.41
				c0.23-0.42,0.58-0.72,0.99-0.88c0.54-0.23,1.18-0.22,1.73,0.09c0.51,0.28,0.85,0.76,0.97,1.29
				C819.07,184.81,819.01,185.32,818.76,185.76z"/><path d="M846.33,127.91c-1.05-0.57-2.31-0.51-3.31,0.14l-57.78,38.04c-0.98,0.64-1.52,1.72-1.46,2.87
				c0.07,1.16,0.72,2.17,1.76,2.7l28.39,14.59l3.54,1.83l25.84,13.27c0.47,0.24,0.98,0.36,1.49,0.36c0.58,0,1.16-0.16,1.68-0.47
				c0.97-0.6,1.55-1.63,1.55-2.76v-67.73C848.03,129.55,847.38,128.47,846.33,127.91z M844.04,197.23l-25.09-12.9l-2.69-1.38
				l-27.73-14.25l55.51-36.55V197.23z"/><path fill="#f59024" d="M844.04,132.16v65.08l-25.09-12.9c-0.12-0.53-0.46-1.01-0.97-1.29c-0.55-0.31-1.19-0.32-1.73-0.09
				l-27.73-14.25L844.04,132.16z"/><g><path d="M582.37,58.12c0,1.1-0.89,1.99-1.99,1.99H427.4c-1.11,0-1.99-0.9-1.99-1.99c0-1.11,0.89-1.99,1.99-1.99h152.97
					C581.48,56.12,582.37,57.01,582.37,58.12z"/><path d="M582.37,74.73c0,1.11-0.89,1.99-1.99,1.99H427.4c-1.11,0-1.99-0.89-1.99-1.99c0-1.1,0.89-1.99,1.99-1.99h152.97
					C581.48,72.74,582.37,73.63,582.37,74.73z"/><path d="M582.37,91.35c0,1.11-0.89,1.99-1.99,1.99H427.4c-1.11,0-1.99-0.89-1.99-1.99c0-1.1,0.89-1.99,1.99-1.99h152.97
					C581.48,89.35,582.37,90.25,582.37,91.35z"/><path d="M582.37,107.97c0,1.1-0.89,1.99-1.99,1.99H427.4c-1.11,0-1.99-0.9-1.99-1.99c0-1.11,0.89-1.99,1.99-1.99h152.97
					C581.48,105.98,582.37,106.87,582.37,107.97z"/><path d="M582.37,124.59c0,1.1-0.89,1.99-1.99,1.99H427.4c-1.11,0-1.99-0.9-1.99-1.99c0-1.11,0.89-1.99,1.99-1.99h152.97
					C581.48,122.59,582.37,123.48,582.37,124.59z"/></g><g><path d="M854.86,329.81c0,1.11-0.9,1.99-1.99,1.99H699.9c-1.11,0-1.99-0.89-1.99-1.99c0-1.1,0.89-1.99,1.99-1.99h152.97
					C853.96,327.82,854.86,328.71,854.86,329.81z"/><path d="M854.86,346.44c0,1.1-0.9,1.99-1.99,1.99H699.9c-1.11,0-1.99-0.9-1.99-1.99c0-1.11,0.89-1.99,1.99-1.99h152.97
					C853.96,344.44,854.86,345.33,854.86,346.44z"/><path d="M854.86,363.05c0,1.1-0.9,1.99-1.99,1.99H699.9c-1.11,0-1.99-0.9-1.99-1.99s0.89-1.99,1.99-1.99h152.97
					C853.96,361.06,854.86,361.95,854.86,363.05z"/><path d="M854.86,379.67c0,1.11-0.9,1.99-1.99,1.99H699.9c-1.11,0-1.99-0.89-1.99-1.99c0-1.1,0.89-1.99,1.99-1.99h152.97
					C853.96,377.67,854.86,378.57,854.86,379.67z"/><path fill="#eef5fd" d="M859.87,5.81H422.67c-21.58,0-39.15,17.56-39.15,39.15v377.65c9.82,8.61,19.74,18.33,29.79,28.92h100.1
					l36.73-105.65c0.31-0.89,1.19-1.44,2.11-1.33l1.66,0.2c-1.31-17.34,2.44-31.68,11.18-42.73l-8.89-1.21
					c-2.32-0.32-4.24-2.07-4.76-4.37c-0.38-1.71,0.03-3.47,1.14-4.83c1.12-1.36,2.77-2.12,4.51-2.07l15.67,0.33l-17.58-11.85
					c-2.72-1.84-3.75-5.42-2.38-8.34c0.9-1.92,2.48-3.22,4.59-3.76c5.96-1.53,15.83,3.43,22.85,7.71c-4.1-6.6-7.26-12.52-8.58-17.21
					c-0.82-2.9,0.09-5.92,2.35-7.89c2.24-1.93,5.34-2.37,8.06-1.16c11.28,5.05,23.88,27.41,27.66,34.53l1.31-1.02v-38.25
					c0-3.49,2.21-6.47,5.31-7.62l-37.81-49.14c-2.38,1.58-5.25,2.49-8.31,2.49c-4.09,0-7.81-1.63-10.53-4.26l-79.56,81.16
					c1.81,2.49,2.86,5.56,2.86,8.86c0,8.38-6.81,15.2-15.2,15.2c-8.38,0-15.2-6.82-15.2-15.2s6.82-15.2,15.2-15.2
					c3.64,0,6.99,1.29,9.6,3.43l79.78-81.39c-1.37-2.28-2.15-4.96-2.15-7.8c0-8.38,6.81-15.2,15.2-15.2
					c8.38,0,15.19,6.82,15.19,15.2c0,3.88-1.46,7.42-3.85,10.1l39.64,51.51c1.39,0.36,2.65,1.08,3.68,2.11
					c1.54,1.53,2.38,3.57,2.38,5.73v0.04l22.6,29.36c1.91-0.89,4.06-1.38,6.3-1.38c3.37,0,6.49,1.11,9.02,2.97l48.34-55.2
					c-2.77-2.75-4.49-6.57-4.49-10.77c0-8.38,6.81-15.2,15.2-15.2c8.38,0,15.2,6.82,15.2,15.2c0,1.87-0.34,3.65-0.96,5.3
					l33.89,18.83c2.66-4.43,7.51-7.4,13.05-7.4c2.38,0,4.64,0.55,6.64,1.54l21.87-39.68l-28.39-14.59c-1.04-0.53-1.69-1.55-1.76-2.7
					c-0.06-1.16,0.48-2.23,1.46-2.87l57.78-38.04c1-0.65,2.26-0.71,3.31-0.14c1.05,0.56,1.7,1.65,1.7,2.84v67.73
					c0,1.14-0.58,2.16-1.55,2.76c-0.52,0.31-1.1,0.47-1.68,0.47c-0.51,0-1.02-0.12-1.49-0.36l-25.84-13.27l-22.08,40.07
					c3.2,2.78,5.23,6.88,5.23,11.45c0,8.39-6.82,15.2-15.2,15.2c-8.38,0-15.2-6.81-15.2-15.2c0-1.43,0.2-2.8,0.57-4.11l-34.18-19
					c-2.76,3.86-7.27,6.38-12.37,6.38c-2.74,0-5.32-0.73-7.53-2l-48.65,55.54c2.07,2.59,3.31,5.88,3.31,9.45
					c0,8.39-6.82,15.2-15.2,15.2c-8.38,0-15.2-6.81-15.2-15.2c0-4.7,2.14-8.9,5.5-11.69l-19.2-24.94v20.51
					c0.96-0.04,1.93,0.17,2.83,0.61c2.07,1.01,3.37,3.08,3.37,5.39c0,0.46-0.05,0.91-0.15,1.35c-3.04,13.65-11.09,25.93-24.61,37.54
					c-4.96,4.26-8.52,10.21-10.01,16.76l-4.64,20.29v0.02l-14.4,99.85h280.2c21.58,0,39.16-17.56,39.16-39.15V44.96
					C899.02,23.38,881.45,5.81,859.87,5.81z M580.37,126.58H427.4c-1.11,0-1.99-0.9-1.99-1.99c0-1.11,0.89-1.99,1.99-1.99h152.97
					c1.11,0,1.99,0.89,1.99,1.99C582.37,125.68,581.48,126.58,580.37,126.58z M580.37,109.97H427.4c-1.11,0-1.99-0.9-1.99-1.99
					c0-1.11,0.89-1.99,1.99-1.99h152.97c1.11,0,1.99,0.89,1.99,1.99C582.37,109.07,581.48,109.97,580.37,109.97z M580.37,93.34
					H427.4c-1.11,0-1.99-0.89-1.99-1.99c0-1.1,0.89-1.99,1.99-1.99h152.97c1.11,0,1.99,0.9,1.99,1.99
					C582.37,92.45,581.48,93.34,580.37,93.34z M580.37,76.73H427.4c-1.11,0-1.99-0.89-1.99-1.99c0-1.1,0.89-1.99,1.99-1.99h152.97
					c1.11,0,1.99,0.9,1.99,1.99C582.37,75.84,581.48,76.73,580.37,76.73z M580.37,60.11H427.4c-1.11,0-1.99-0.9-1.99-1.99
					c0-1.11,0.89-1.99,1.99-1.99h152.97c1.11,0,1.99,0.89,1.99,1.99C582.37,59.21,581.48,60.11,580.37,60.11z M852.87,398.28H699.9
					c-1.11,0-1.99-0.89-1.99-1.99c0-1.1,0.89-1.99,1.99-1.99h152.97c1.1,0,1.99,0.9,1.99,1.99
					C854.86,397.39,853.96,398.28,852.87,398.28z M852.87,381.66H699.9c-1.11,0-1.99-0.89-1.99-1.99c0-1.1,0.89-1.99,1.99-1.99
					h152.97c1.1,0,1.99,0.9,1.99,1.99C854.86,380.77,853.96,381.66,852.87,381.66z M852.87,365.05H699.9c-1.11,0-1.99-0.9-1.99-1.99
					s0.89-1.99,1.99-1.99h152.97c1.1,0,1.99,0.9,1.99,1.99S853.96,365.05,852.87,365.05z M852.87,348.43H699.9
					c-1.11,0-1.99-0.9-1.99-1.99c0-1.11,0.89-1.99,1.99-1.99h152.97c1.1,0,1.99,0.89,1.99,1.99
					C854.86,347.53,853.96,348.43,852.87,348.43z M852.87,331.81H699.9c-1.11,0-1.99-0.89-1.99-1.99c0-1.1,0.89-1.99,1.99-1.99
					h152.97c1.1,0,1.99,0.9,1.99,1.99C854.86,330.92,853.96,331.81,852.87,331.81z"/><path d="M854.86,396.28c0,1.11-0.9,1.99-1.99,1.99H699.9c-1.11,0-1.99-0.89-1.99-1.99c0-1.1,0.89-1.99,1.99-1.99h152.97
					C853.96,394.29,854.86,395.19,854.86,396.28z"/></g><g><path fill="#f6aaac" d="M341.86,266.55l-8.19,10.07c-0.96,1.18-1.49,2.66-1.49,4.18v42.9c0,0.31-0.18,0.59-0.46,0.74
				c-8.15,4.07-18.9,4.08-33.82,0.02c-1.45-0.4-2.97-0.1-4.17,0.82c-1.2,0.91-1.88,2.29-1.88,3.79v18.61
				c-21.14-8.04-47.42-9.44-81.22-4.44l1.78-22.52c6.46,4.23,13.68,7,21.79,7.93c1.63,0.19,3.27,0.28,4.91,0.28
				c9.24,0,18.52-2.92,26.61-8.43c8.12-5.54,14.4-12.64,18.67-21.09c0.37-0.71,0.27-1.57-0.25-2.17l-4.82-5.73
				c-6.59-7.85-9.5-17.91-7.99-27.61c0.28-1.8,0.69-3.37,1.2-4.7c0.54-1.38,1.73-2.32,3.2-2.53c1.51-0.22,2.94,0.37,3.86,1.58
				l9.92,13.01c0.87,1.14,2.26,1.66,3.67,1.35c1.4-0.32,2.45-1.38,2.76-2.77c3.86-17.73,3.23-35.7-1.88-53.44
				c-0.58-2-0.04-4.17,1.41-5.64c3.3-3.38,9.9-9.05,18.83-11.39l7.78,13.55c2.47,4.31,3.77,9.21,3.77,14.17v14.29
				c0,4.11,1.54,8.03,4.31,11.05l11.65,12.69C342.19,265.5,342.21,266.13,341.86,266.55z"/><path d="M212.68,317.26l-0.27,3.45l-1.78,22.52l-0.2,2.5c-0.08,1.05-0.95,1.84-1.98,1.84h-0.16c-1.1-0.09-1.92-1.05-1.83-2.14
				l0.12-1.48l2.03-25.94l0.08-1.06c0.09-1.1,1.05-1.92,2.14-1.84C211.95,315.21,212.77,316.17,212.68,317.26z"/></g><g><path d="M1453.96,590.45c-14.42,0-26.17,11.74-26.17,26.17v196.83c0,13.76,10.68,25.07,24.19,26.09
				c0.66,0.05,1.32,0.08,1.98,0.08c0.68,0,1.35-0.03,2-0.08c13.49-1.03,24.17-12.34,24.17-26.09V616.62
				C1480.13,602.18,1468.4,590.45,1453.96,590.45z M1476.15,813.44c0,12.24-9.93,22.17-22.17,22.18h-0.01
				c-12.23,0-22.18-9.94-22.18-22.18V616.62c0-12.23,9.95-22.18,22.18-22.18c12.24,0,22.18,9.95,22.18,22.18V813.44z"/><path fill="#d1e0ff" d="M1476.15,616.62v196.83c0,12.24-9.93,22.17-22.17,22.18h-0.01c-12.23,0-22.18-9.94-22.18-22.18V616.62
				c0-12.23,9.95-22.18,22.18-22.18C1466.2,594.43,1476.15,604.39,1476.15,616.62z"/><path d="M1455.97,837.62v210.84c0,1.1-0.9,1.99-1.99,1.99c-0.08,0-0.16-0.01-0.24-0.01c-0.99-0.12-1.76-0.97-1.76-1.98V837.62
				c0-1.1,0.88-1.98,1.98-1.99h0.01C1455.07,835.62,1455.97,836.52,1455.97,837.62z"/><path d="M1207.23,1050.34h167.32c-0.73,0-1.44-0.4-1.79-1.1c-0.49-0.99-0.09-2.18,0.89-2.68c0.14-0.07,0.27-0.14,0.4-0.21
				h-166.83c-14.23,0-25.82,11.59-25.82,25.82v0.3c0,9.18,4.82,17.25,12.05,21.83h13.77c-12.04,0-21.83-9.79-21.83-21.83v-0.3
				C1185.4,1060.13,1195.19,1050.34,1207.23,1050.34z M1455.97,1046.71c-1.3-0.22-2.63-0.34-3.99-0.35
				c-0.09-0.01-0.19-0.01-0.28-0.01h-244.47c-14.23,0-25.82,11.59-25.82,25.82v0.3c0,9.18,4.82,17.25,12.05,21.83
				c3.99,2.53,8.72,3.99,13.77,3.99h244.47c14.23,0,25.82-11.59,25.82-25.82v-0.3C1477.52,1059.39,1468.18,1048.74,1455.97,1046.71z
				 M1473.53,1072.47c0,12.04-9.79,21.83-21.83,21.83h-244.47c-12.04,0-21.83-9.79-21.83-21.83v-0.3c0-12.04,9.79-21.83,21.83-21.83
				h244.47c0.69,0,1.37,0.03,2.03,0.1c0.08,0,0.16,0.01,0.24,0.01c10.97,1.15,19.56,10.45,19.56,21.72V1072.47z M1207.23,1050.34
				h167.32c-0.73,0-1.44-0.4-1.79-1.1c-0.49-0.99-0.09-2.18,0.89-2.68c0.14-0.07,0.27-0.14,0.4-0.21h-166.83
				c-14.23,0-25.82,11.59-25.82,25.82v0.3c0,9.18,4.82,17.25,12.05,21.83h13.77c-12.04,0-21.83-9.79-21.83-21.83v-0.3
				C1185.4,1060.13,1195.19,1050.34,1207.23,1050.34z"/><path fill="#d1e0ff" d="M1473.53,1072.17v0.3c0,12.04-9.79,21.83-21.83,21.83h-244.47c-12.04,0-21.83-9.79-21.83-21.83v-0.3
				c0-12.04,9.79-21.83,21.83-21.83h244.47c0.69,0,1.37,0.03,2.03,0.1c0.08,0,0.16,0.01,0.24,0.01
				C1464.95,1051.6,1473.53,1060.9,1473.53,1072.17z"/><path d="M1329.47,1484.08c-1.1,0-1.99-0.89-1.99-1.99v-385.8c0-1.1,0.89-1.99,1.99-1.99s1.99,0.89,1.99,1.99v385.8
				C1331.46,1483.19,1330.57,1484.08,1329.47,1484.08z"/><path d="M1373.99,1484.08h-76.96c-1.1,0-1.99-0.89-1.99-1.99s0.89-1.99,1.99-1.99h76.96c1.1,0,1.99,0.89,1.99,1.99
				S1375.09,1484.08,1373.99,1484.08z"/><path d="M1340.61,476.36c-0.73-17.19-9.26-30.57-24-37.66c-3.72-1.79-7.46-4.08-11.11-6.81c-6.82-5.1-15.5-6.63-25.81-4.56
				c-6.73,1.36-12.96,2.01-19.02,2.01h-49.06c-9.1,0-16.5,7.4-16.5,16.51c0,9.01,7.25,16.35,16.22,16.49
				c0.09,0.01,0.19,0.01,0.28,0.01h15.55c7.85,0,15.27-1.4,22.04-4.16c4.85-1.96,9.07-2.11,12.9-0.47c5.16,2.22,8.5,7.45,8.5,13.31
				v19.36c0,3.2,2.6,5.79,5.79,5.79c2.53,0,5.02-0.86,7-2.43c8.83-6.97,16.22-9.79,20.79-7.95c3.54,1.43,4.78,5.33,5.2,8.35
				c1.18,8.56-2.74,21.38-11.35,28.02c-0.52,0.4-0.81,1.03-0.78,1.69l0.94,17.34l0.07,1.29c0.04,0.7,0.44,1.33,1.06,1.66
				c0.29,0.16,0.62,0.24,0.94,0.24c0.26,0,0.53-0.06,0.77-0.16c0.05-0.02,0.09-0.05,0.14-0.07c0.04-0.01,0.07-0.03,0.11-0.05
				C1325.52,529.79,1341.69,501.93,1340.61,476.36z M1302.07,538.9l-0.78-14.24c9.18-7.69,13.33-21.64,12.04-31.05
				c-0.79-5.75-3.51-9.84-7.65-11.51c-6.14-2.47-14.47,0.4-24.76,8.52c-1.29,1.02-2.89,1.58-4.53,1.58c-1,0-1.81-0.81-1.81-1.81
				v-19.36c0-7.46-4.29-14.12-10.91-16.97c-4.8-2.06-10.17-1.91-15.97,0.44c-6.3,2.56-13.21,3.86-20.55,3.86h-15.55
				c-6.89,0-12.51-5.62-12.51-12.51c0-6.9,5.61-12.52,12.51-12.52h49.06c6.33,0,12.82-0.68,19.81-2.08
				c9.28-1.88,16.69-0.62,22.63,3.83c3.86,2.89,7.82,5.32,11.78,7.21c13.34,6.42,21.06,18.58,21.73,34.24
				C1337.6,499.69,1323.52,524.88,1302.07,538.9z"/><path fill="#1b2e35" d="M1302.07,538.9l-0.78-14.24c9.18-7.69,13.33-21.64,12.04-31.05c-0.79-5.75-3.51-9.84-7.65-11.51
				c-6.14-2.47-14.47,0.4-24.76,8.52c-1.29,1.02-2.89,1.58-4.53,1.58c-1,0-1.81-0.81-1.81-1.81v-19.36
				c0-7.46-4.29-14.12-10.91-16.97c-4.8-2.06-10.17-1.91-15.97,0.44c-6.3,2.56-13.21,3.86-20.55,3.86h-15.55
				c-6.89,0-12.51-5.62-12.51-12.51c0-6.9,5.61-12.52,12.51-12.52h49.06c6.33,0,12.82-0.68,19.81-2.08
				c9.28-1.88,16.69-0.62,22.63,3.83c3.86,2.89,7.82,5.32,11.78,7.21c13.34,6.42,21.06,18.58,21.73,34.24
				C1337.6,499.69,1323.52,524.88,1302.07,538.9z"/><path d="M1301.16,544.15c-0.05,0.02-0.09,0.05-0.14,0.07c-0.82,0.42-1.63,0.83-2.43,1.24c-1.26,0.63-2.5,1.24-3.72,1.83
				c-17.63,8.48-31.78,12.67-43.18,12.74h-0.28c-1.27,0-2.51-0.05-3.71-0.16c-3.62-0.31-6.94-1.08-9.98-2.3
				c-9.19-3.7-15.94-11.68-20.09-23.73c-1.95-5.7-3.13-11.87-3.47-18.32l-2.82-53.17l-0.1-1.88c-0.06-1.1,0.79-2.03,1.89-2.09h0.09
				c1.05,0,1.95,0.82,2,1.88l0.11,2.1l2.82,52.95c0.32,6.08,1.42,11.88,3.26,17.23c3.8,11.06,9.62,18.03,17.79,21.32
				c3.06,1.23,6.44,1.94,10.19,2.13h0.01c0.24,0.02,0.49,0.03,0.73,0.04c0.01,0,0.01,0,0.02,0c11.43,0.37,26.15-4.02,45.14-13.37
				c0.11-0.06,0.22-0.11,0.33-0.16c0.85-0.42,1.71-0.86,2.57-1.3c0.38-0.19,0.77-0.39,1.16-0.59c0.98-0.51,2.18-0.12,2.68,0.86
				C1302.53,542.44,1302.15,543.65,1301.16,544.15z"/><path fill="#f6aaac" d="M1303.51,590.7c-7.55,9.87-33.75,17.7-51.17,8.29c-0.4-0.22-0.65-0.65-0.65-1.14v-37.84
				c11.41-0.07,25.55-4.26,43.18-12.74L1303.51,590.7z"/><path fill="#f6aaac" d="M1297.25,523.85l0.94,17.34c-0.87,0.44-1.73,0.88-2.57,1.3c-0.11,0.05-0.22,0.1-0.33,0.16
				c-18.99,9.36-33.71,13.74-45.14,13.37c-0.01,0-0.01,0-0.02,0c-0.14-0.04-0.29-0.06-0.44-0.06c-0.1,0-0.2,0.01-0.29,0.02h-0.01
				c-3.75-0.19-7.13-0.91-10.19-2.13c-8.17-3.29-13.99-10.26-17.79-21.32c-1.84-5.36-2.94-11.15-3.26-17.23l-2.82-52.95h11.84
				c7.85,0,15.27-1.4,22.04-4.16c4.85-1.96,9.07-2.11,12.9-0.47c5.16,2.22,8.5,7.45,8.5,13.31v19.36c0,3.2,2.6,5.79,5.79,5.79
				c2.53,0,5.02-0.86,7-2.43c8.83-6.97,16.22-9.79,20.79-7.95c3.54,1.43,4.78,5.33,5.2,8.35c1.18,8.56-2.74,21.38-11.35,28.02
				C1297.51,522.57,1297.22,523.19,1297.25,523.85z"/><path d="M1307.28,592.28c-0.2,0.3-0.42,0.6-0.66,0.9c-5.89,7.6-20.89,14.03-35.97,14.04c-7.02,0-14.06-1.4-20.21-4.72
				c-0.58-0.31-1.08-0.72-1.5-1.21c-0.79-0.94-1.25-2.15-1.25-3.44v-39.89c0-1.01,0.73-1.83,1.7-1.97h0.01
				c0.09-0.01,0.19-0.02,0.29-0.02c0.15,0,0.3,0.02,0.44,0.06c0.01,0,0.01,0,0.02,0c0.88,0.2,1.54,0.99,1.54,1.93v39.89
				c0,0.49,0.25,0.92,0.65,1.14c17.42,9.41,43.62,1.59,51.17-8.29l-8.64-43.42l-0.5-2.53c-0.16-0.85,0.23-1.68,0.92-2.09
				c0.11-0.06,0.22-0.11,0.33-0.16c0.11-0.04,0.22-0.07,0.33-0.09c1.08-0.22,2.12,0.48,2.34,1.57l0.3,1.49l8.69,43.74l0.31,1.58
				C1307.68,591.3,1307.57,591.84,1307.28,592.28z"/><path d="M1414.42,910.69c-0.38,0.27-0.77,0.51-1.18,0.73c-0.85,0.46-1.72,0.91-2.62,1.34c-16.45,7.96-42.3,11.95-69.47,11.95
				c-39.5,0-81.82-8.43-102.18-25.35c-0.83-0.7-1.63-1.4-2.37-2.12c-0.21-0.18-0.4-0.38-0.6-0.57c-0.09-0.09-0.18-0.2-0.25-0.3
				c-0.52-0.78-0.45-1.85,0.23-2.52c0.39-0.4,0.91-0.6,1.42-0.6s1.02,0.2,1.41,0.58c0.6,0.59,1.22,1.17,1.87,1.74
				c0.65,0.57,1.33,1.13,2.03,1.68c15.33,11.96,44.26,20.39,79.08,22.84c36.71,2.6,71.02-2.05,89.55-12.15
				c4.02-2.19,6.3-6.76,5.67-11.38c-4.07-29.93-6.68-60.52-9.21-90.09c-9.68-113.47-18.06-211.52-101.19-213.27
				c-0.34-0.01-0.68-0.02-1.02-0.02c-1.1-0.01-1.98-0.92-1.96-2.01c0.01-1.11,0.91-2.01,2.01-1.97c0.55,0.01,1.09,0.02,1.63,0.03
				c20.48,0.54,37.1,6.6,50.8,18.51c12.59,10.94,22.43,26.67,30.08,48.09c14.17,39.68,18.76,93.42,23.62,150.31
				c2.52,29.53,5.13,60.06,9.2,89.89C1421.76,901.79,1419.16,907.53,1414.42,910.69z"/><path d="M1251.68,597.86c0,0.54-0.22,1.09-0.66,1.48c-0.7,0.64-1.4,1.29-2.08,1.96c-28.5,27.6-49.83,83.16-66.97,134.14
				c-1.41,4.2-4.78,7.45-9.02,8.72l-128.47,38.43c-1.03,0.31-1.72,1.24-1.72,2.3c0,0.01,0,0.01,0,0.02v53.52
				c0,1.1-0.9,1.99-1.99,1.99c-1.11,0-1.99-0.9-1.99-1.99v-53.54c0-0.62,0.09-1.23,0.26-1.8c0.59-2.04,2.17-3.69,4.3-4.33
				l128.47-38.43c3-0.9,5.39-3.2,6.38-6.16c17.59-52.33,39.6-109.48,69.5-137.19c0.22-0.2,0.43-0.4,0.65-0.6
				c0.82-0.74,2.08-0.68,2.82,0.13C1251.51,596.89,1251.68,597.38,1251.68,597.86z"/><path d="M1080.05,836.81c-0.37-0.37-0.88-0.58-1.41-0.58c0,0,0,0-0.01,0l-35.86,0.19v2c0,1.1-0.9,1.99-1.99,1.99l35.87-0.19
				v16.35h3.99v-18.35C1080.64,837.7,1080.43,837.19,1080.05,836.81z M1080.05,836.81c-0.37-0.37-0.88-0.58-1.41-0.58
				c0,0,0,0-0.01,0l-35.86,0.19l-3.99,0.02l-79.75,0.42l-0.94,0.01l-3.12,0.02h-1.11l-26.22,0.14l-23.91-150.42
				c-0.16-0.97-1-1.68-1.97-1.68h-22.56c-0.59,0-1.15,0.26-1.53,0.7c-0.38,0.45-0.54,1.04-0.45,1.62l27.83,169.33l0.38,2.31
				c0.16,0.97,1,1.68,1.97,1.68h171.23c1.11,0,1.99-0.9,1.99-1.99v-20.35C1080.64,837.7,1080.43,837.19,1080.05,836.81z
				 M909.1,856.58l-27.55-167.65h18.51l23.91,150.42c0.16,0.97,1,1.69,1.97,1.69h0.01l114.82-0.61l35.87-0.19v16.35H909.1z
				 M1080.05,836.81c-0.37-0.37-0.88-0.58-1.41-0.58c0,0,0,0-0.01,0l-35.86,0.19v2c0,1.1-0.9,1.99-1.99,1.99l35.87-0.19v16.35h3.99
				v-18.35C1080.64,837.7,1080.43,837.19,1080.05,836.81z M1080.05,836.81c-0.37-0.37-0.88-0.58-1.41-0.58c0,0,0,0-0.01,0
				l-35.86,0.19v2c0,1.1-0.9,1.99-1.99,1.99l35.87-0.19v16.35h3.99v-18.35C1080.64,837.7,1080.43,837.19,1080.05,836.81z"/><path fill="#f59024" d="M1076.65,840.23v16.35H909.1l-27.55-167.65h18.51l23.91,150.42c0.16,0.97,1,1.69,1.97,1.69h0.01l114.82-0.61
				L1076.65,840.23z"/><path fill="#f6aaac" d="M1038.78,807.43v29.01l-79.75,0.42c2.79-14.61,15.17-25.61,30.22-26.5L1038.78,807.43z"/><path d="M1365.4,731.2c-27.65,38.79-94.51,91.18-127.02,115.52c-1.4,1.05-2.72,2.04-3.99,2.97c-3.79,2.82-6.95,5.14-9.34,6.88
				c-3.1,2.25-4.9,3.53-5.03,3.62c-0.35,0.25-0.76,0.37-1.15,0.37c-0.63,0-1.25-0.29-1.64-0.84c-0.64-0.9-0.42-2.14,0.48-2.78
				c0.04-0.03,0.21-0.15,0.51-0.37c8.06-5.75,108.61-78.14,143.93-127.69c9.56-13.42,12.74-30.28,8.71-46.26
				c-4.92-19.48-12.95-30.74-26.03-36.53c-14.39-6.37-31.31-4.2-44.14,5.68c-41.24,31.78-77.61,76.28-111.19,136.06
				c-3.88,6.9-10.91,11.3-18.81,11.77l-127.91,7.58l-3.99,0.24l-49.53,2.93c-15.05,0.89-27.43,11.89-30.22,26.5
				c-0.15,0.72-0.26,1.45-0.35,2.18c0,0.02,0,0.04-0.01,0.06c-0.02,0.13-0.04,0.25-0.08,0.37c-0.04,0.12-0.08,0.23-0.14,0.34
				c-0.05,0.09-0.12,0.19-0.19,0.28c0,0.01-0.01,0.03-0.03,0.04c-0.06,0.08-0.14,0.15-0.21,0.22c-0.01,0.02-0.01,0.02-0.02,0.02
				c-0.09,0.08-0.18,0.14-0.28,0.2c-0.1,0.06-0.21,0.12-0.32,0.16c-0.12,0.04-0.23,0.07-0.35,0.1c-0.12,0.02-0.24,0.03-0.36,0.03
				h-0.01c-0.08,0-0.16,0-0.24-0.01c-0.01,0-0.03,0-0.04-0.01c-0.11-0.02-0.21-0.04-0.31-0.07c-0.07-0.02-0.13-0.05-0.19-0.07
				c-0.13-0.06-0.26-0.13-0.38-0.22c-0.05-0.03-0.1-0.07-0.15-0.12c-0.07-0.05-0.13-0.11-0.18-0.18c-0.08-0.08-0.15-0.18-0.21-0.28
				c-0.06-0.1-0.12-0.21-0.16-0.32c-0.11-0.3-0.16-0.62-0.12-0.96c0.07-0.58,0.15-1.16,0.26-1.74c0.3-1.79,0.73-3.52,1.28-5.21
				c4.59-14.15,17.44-24.39,32.76-25.3l49.77-2.95l3.99-0.23l127.67-7.57c6.54-0.39,12.36-4.03,15.57-9.74
				c33.85-60.26,70.56-105.15,112.24-137.25c13.99-10.78,32.45-13.15,48.19-6.18c14.32,6.33,23.04,18.43,28.28,39.21
				C1379.04,698.77,1375.64,716.83,1365.4,731.2z"/><path fill="#f6aaac" d="M1038.78,787.14v16.29l-49.77,2.95c-15.32,0.91-28.17,11.15-32.76,25.3l-1.05-2.93
				c-2.18-6.11-1.68-12.91,1.39-18.63c3.07-5.72,8.45-9.92,14.76-11.51C988.79,794.24,1009.66,790.69,1038.78,787.14z"/><path d="M1042.77,784.89c0,0.01,0,0.01,0,0.02c0,0.99-0.75,1.85-1.76,1.96c-0.75,0.09-1.5,0.18-2.23,0.27
				c-29.12,3.55-49.99,7.1-67.43,11.47c-6.31,1.59-11.69,5.78-14.76,11.51c-3.06,5.72-3.57,12.52-1.39,18.63l1.05,2.93l1.85,5.19
				l0.48,1.33c0.1,0.28,0.13,0.57,0.11,0.85c0,0.02,0,0.04-0.01,0.06c-0.02,0.13-0.04,0.25-0.08,0.37
				c-0.04,0.12-0.08,0.23-0.14,0.34c-0.05,0.09-0.12,0.19-0.19,0.28c0,0.01-0.01,0.03-0.03,0.04c-0.06,0.08-0.14,0.15-0.21,0.22
				c-0.01,0.02-0.01,0.02-0.02,0.02c-0.09,0.08-0.18,0.14-0.28,0.2c-0.1,0.06-0.21,0.12-0.32,0.16c-0.01,0.01-0.03,0.01-0.04,0.02
				c-0.1,0.04-0.21,0.06-0.31,0.08c-0.12,0.02-0.24,0.03-0.36,0.03h-0.01c-0.09,0-0.19-0.01-0.28-0.02
				c-0.11-0.02-0.21-0.04-0.31-0.07c-0.07-0.02-0.13-0.05-0.19-0.07c-0.13-0.06-0.26-0.13-0.38-0.22c-0.05-0.03-0.1-0.07-0.15-0.12
				c-0.07-0.05-0.13-0.11-0.18-0.18c-0.08-0.08-0.15-0.18-0.21-0.28c-0.06-0.1-0.12-0.21-0.16-0.32c-0.01-0.01-0.01-0.03-0.02-0.04
				l-0.95-2.65l-2.42-6.8c-2.55-7.17-1.96-15.13,1.63-21.84c3.6-6.72,9.91-11.65,17.31-13.5c17.74-4.45,38.98-8.05,68.66-11.65
				l1.5-0.18c1.1-0.13,2.08,0.65,2.21,1.75C1042.76,784.73,1042.77,784.82,1042.77,784.89z"/><path d="M1252.51,856.58h-27.47c-3.1,2.25-4.9,3.53-5.03,3.62c-0.35,0.25-0.76,0.37-1.15,0.37h33.64
				c9.01,0,16.34,7.33,16.34,16.34c0,9.02-7.33,16.34-16.34,16.34h-95.3c1.11,0,1.99,0.9,1.99,1.99v1.99h77.38
				c-0.21-0.18-0.4-0.38-0.6-0.57c-0.09-0.09-0.18-0.2-0.25-0.3l2.84-1.17c0.73-0.3,1.54-0.13,2.08,0.36
				c0.65,0.57,1.33,1.13,2.03,1.68h9.8c11.21,0,20.33-9.12,20.33-20.33C1272.84,865.69,1263.72,856.58,1252.51,856.58z
				 M1252.51,856.58h-27.47c-3.1,2.25-4.9,3.53-5.03,3.62c-0.35,0.25-0.76,0.37-1.15,0.37h33.64c9.01,0,16.34,7.33,16.34,16.34
				c0,9.02-7.33,16.34-16.34,16.34h-95.3c1.11,0,1.99,0.9,1.99,1.99v1.99h77.38c-0.21-0.18-0.4-0.38-0.6-0.57
				c-0.09-0.09-0.18-0.2-0.25-0.3l2.84-1.17c0.73-0.3,1.54-0.13,2.08,0.36c0.65,0.57,1.33,1.13,2.03,1.68h9.8
				c11.21,0,20.33-9.12,20.33-20.33C1272.84,865.69,1263.72,856.58,1252.51,856.58z M1252.51,856.58H565.73
				c-11.21,0-20.33,9.12-20.33,20.33c0,11.21,9.12,20.33,20.33,20.33h686.78c11.21,0,20.33-9.12,20.33-20.33
				C1272.84,865.69,1263.72,856.58,1252.51,856.58z M1252.51,893.24H565.73c-9.01,0-16.34-7.32-16.34-16.34
				c0-9.01,7.33-16.34,16.34-16.34h686.78c9.01,0,16.34,7.33,16.34,16.34C1268.85,885.92,1261.52,893.24,1252.51,893.24z
				 M1252.51,856.58h-27.47c-3.1,2.25-4.9,3.53-5.03,3.62c-0.35,0.25-0.76,0.37-1.15,0.37h33.64c9.01,0,16.34,7.33,16.34,16.34
				c0,9.02-7.33,16.34-16.34,16.34h-95.3c1.11,0,1.99,0.9,1.99,1.99v1.99h77.38c-0.21-0.18-0.4-0.38-0.6-0.57
				c-0.09-0.09-0.18-0.2-0.25-0.3l2.84-1.17c0.73-0.3,1.54-0.13,2.08,0.36c0.65,0.57,1.33,1.13,2.03,1.68h9.8
				c11.21,0,20.33-9.12,20.33-20.33C1272.84,865.69,1263.72,856.58,1252.51,856.58z M1234.39,858.57v-1.99h-9.34
				c-3.1,2.25-4.9,3.53-5.03,3.62c-0.35,0.25-0.76,0.37-1.15,0.37h17.51C1235.29,860.57,1234.39,859.67,1234.39,858.57z
				 M1235.75,896.36c-0.52-0.78-0.45-1.85,0.23-2.52c0.39-0.4,0.91-0.6,1.42-0.6h-80.18c1.11,0,1.99,0.9,1.99,1.99v1.99h77.38
				c-0.21-0.18-0.4-0.38-0.6-0.57C1235.91,896.57,1235.82,896.46,1235.75,896.36z"/><path fill="#d1e0ff" d="M1268.85,876.9c0,9.02-7.33,16.34-16.34,16.34H565.73c-9.01,0-16.34-7.32-16.34-16.34
				c0-9.01,7.33-16.34,16.34-16.34h686.78C1261.52,860.57,1268.85,867.9,1268.85,876.9z"/><path fill="#7a91e5" d="M1362.15,728.89c-35.32,49.55-135.87,121.93-143.93,127.69h-137.58v-18.35c0-0.53-0.21-1.04-0.59-1.42
				c-0.37-0.37-0.88-0.58-1.41-0.58c0,0,0,0-0.01,0l-35.86,0.19v-29.23l127.91-7.58c7.9-0.47,14.93-4.87,18.81-11.77
				c33.58-59.78,69.95-104.28,111.19-136.06c12.84-9.88,29.75-12.06,44.14-5.68c13.09,5.79,21.11,17.05,26.03,36.53
				C1374.89,698.61,1371.71,715.46,1362.15,728.89z"/><path d="M1414.96,969.38c-3.49,37.65-14.92,64.04-33.21,76.97c-2.01,1.43-4.11,2.68-6.29,3.78c-0.29,0.14-0.6,0.21-0.9,0.21
				c-0.73,0-1.44-0.4-1.79-1.1c-0.49-0.99-0.09-2.18,0.89-2.68c0.14-0.07,0.27-0.14,0.4-0.21c45.3-23.31,38.31-116.14,36.56-133.59
				c-0.18-1.75-0.3-2.73-0.31-2.83c-0.11-0.84,0.32-1.63,1.03-2c0.21-0.12,0.45-0.2,0.7-0.23c1.08-0.14,2.09,0.64,2.23,1.73
				c0,0.04,0.06,0.48,0.15,1.28C1415.06,916.57,1417.51,941.87,1414.96,969.38z"/><path d="M1241.33,897.23c-0.07,0.72-0.52,1.37-1.23,1.66l-1.14,0.47l-80.97,33.22l-40.17,16.49
				c-12.3,5.05-23.39,9.34-33.91,13.11c-63.42,22.78-94.68,52.27-98.37,92.8c-9.01,73.19-9.34,208.99-0.91,354.8h67.74l32.66-201.28
				c1.24-7.62,2.31-15.31,3.21-23.02c0,0,0-0.01,0-0.02c1.11-9.34,1.96-18.71,2.57-28.04l3.66-56.61c0.24-3.65,3.29-6.51,6.96-6.51
				h105.79c1.11,0,1.99,0.89,1.99,1.99c0,1.1-0.89,1.99-1.99,1.99h-105.79c-1.57,0-2.87,1.22-2.97,2.78l-3.67,56.61
				c-0.6,9.24-1.45,18.5-2.53,27.74c-0.3,2.59-0.62,5.18-0.97,7.76c-0.7,5.35-1.48,10.66-2.33,15.96l-32.93,202.97
				c-0.15,0.96-0.99,1.67-1.96,1.67h-71.32c-1.06,0-1.92-0.82-1.98-1.88c-8.57-146.75-8.26-283.67,0.82-357.35
				c3.83-42.2,35.92-72.76,100.98-96.13c10.46-3.76,21.5-8.03,33.75-13.05l38.91-15.97l3.99-1.64l74.42-30.54l2.11-0.87l2.84-1.17
				c0.73-0.3,1.54-0.13,2.08,0.36c0.22,0.19,0.4,0.44,0.52,0.73C1241.32,896.59,1241.36,896.92,1241.33,897.23z"/><path d="M1049.74,1441.22h-52.48c-0.18,0-0.35,0.02-0.51,0.06l-1.49,0.39l-57.94,15.26c-10.33,2.72-17.55,12.09-17.55,22.77
				c0,4.09,3.33,7.41,7.42,7.41h122.54c1.71,0,3.1-1.39,3.1-3.1v-39.68C1052.84,1442.6,1051.45,1441.22,1049.74,1441.22z
				 M1048.85,1483.12H927.2c-1.89,0-3.43-1.54-3.43-3.42c0-8.88,5.99-16.65,14.58-18.91l59.17-15.58h51.33V1483.12z"/><path fill="#f59024" d="M1048.85,1445.21v37.91H927.2c-1.89,0-3.43-1.54-3.43-3.42c0-8.88,5.99-16.65,14.58-18.91l59.17-15.58
				H1048.85z"/><path d="M1047.88,1411.78v31.44c0,1.1-0.9,1.99-1.99,1.99c-1.11,0-1.99-0.9-1.99-1.99v-31.44c0-1.1,0.89-1.99,1.99-1.99
				C1046.98,1409.78,1047.88,1410.68,1047.88,1411.78z"/><rect width="44.63" height="27.45" x="999.26" y="1413.77" fill="#f6aaac"/><path d="M999.26,1411.78v31.44c0,1.1-0.9,1.99-1.99,1.99c-1.11,0-1.99-0.9-1.99-1.99v-31.44c0-1.1,0.89-1.99,1.99-1.99
				C998.36,1409.78,999.26,1410.68,999.26,1411.78z"/><path fill="#8b9ef3" d="M1411.34,907.92c-18.53,10.09-52.84,14.75-89.55,12.15c-34.82-2.45-63.75-10.88-79.08-22.84h9.8
				c11.21,0,20.33-9.12,20.33-20.33c0-11.21-9.12-20.33-20.33-20.33h-14.13v-9.85c32.51-24.35,99.38-76.74,127.02-115.52
				c10.24-14.37,13.64-32.43,9.33-49.55c-5.25-20.77-13.96-32.87-28.28-39.21c-15.74-6.97-34.2-4.6-48.19,6.18
				c-41.68,32.1-78.39,76.99-112.24,137.25c-3.21,5.71-9.03,9.36-15.57,9.74l-127.67,7.57v-18.29c0-0.01,0-0.01,0-0.02
				c0-1.07,0.69-1.99,1.72-2.3l128.47-38.43c4.24-1.27,7.61-4.52,9.02-8.72c17.14-50.98,38.47-106.55,66.97-134.14
				c0.42,0.49,0.92,0.9,1.5,1.21c6.14,3.32,13.18,4.72,20.21,4.72c15.08-0.01,30.08-6.44,35.97-14.04
				c83.13,1.76,91.51,99.8,101.19,213.27c2.52,29.57,5.14,60.16,9.21,90.09C1417.64,901.16,1415.36,905.72,1411.34,907.92z"/><path d="M1238.38,845.74v12.83c0,1.1-0.89,1.99-1.99,1.99c-1.1,0-1.99-0.9-1.99-1.99v-12.83c0-1.1,0.9-1.99,1.99-1.99
				C1237.49,843.75,1238.38,844.65,1238.38,845.74z"/><path fill="#36509b" d="M1374.06,1046.35h-166.83c-14.23,0-25.82,11.59-25.82,25.82v0.3c0,9.18,4.82,17.25,12.05,21.83h-92.01
				c-3.67,0-6.72,2.86-6.96,6.51l-3.66,56.61c-0.61,9.33-1.47,18.7-2.57,28.04c0,0.01,0,0.02,0,0.02c-0.9,7.71-1.97,15.4-3.21,23.02
				l-32.66,201.28h-67.74c-8.44-145.81-8.1-281.61,0.91-354.8c3.69-40.53,34.95-70.02,98.37-92.8c10.52-3.78,21.61-8.07,33.91-13.11
				l40.17-16.49l80.97-33.22c20.36,16.92,62.67,25.35,102.18,25.35c27.18,0,53.03-3.99,69.47-11.95
				C1412.37,930.21,1419.36,1023.04,1374.06,1046.35z"/><path d="M1249.36,1378.6l-6.49,2.35l-3.75,1.36h-0.01l-39.89,14.46l-3.75,1.37l-10.57,3.83c-0.22,0.08-0.45,0.12-0.68,0.12
				c-0.77,0-1.5-0.45-1.83-1.2l-23.18-52.86l-3.99-9.1l-63.92-145.76l-2.9-6.62c-0.15-0.35-0.2-0.72-0.15-1.08c0,0,0-0.01,0-0.02
				c0.1-0.65,0.53-1.25,1.18-1.54c1.01-0.44,2.19,0.02,2.63,1.03l0.21,0.47l66.7,152.15c0.04,0.07,0.07,0.14,0.1,0.21l26.22,59.8
				l10.67-3.86c0.1-0.05,0.21-0.09,0.32-0.12l43.42-15.75c0.02-0.01,0.04-0.01,0.06-0.02c0.01,0,0.01,0,0.02-0.01l6.56-2.37
				l-63.33-277.16l-0.36-1.56c-0.24-1.07,0.43-2.14,1.51-2.38c0.15-0.04,0.3-0.05,0.45-0.05c0.91,0,1.73,0.63,1.93,1.55l0.56,2.44
				l63.52,277.99C1250.85,1377.27,1250.31,1378.25,1249.36,1378.6z"/><path fill="#f6aaac" d="M1245.94,1404.29c-0.05,0.12-0.18,0.29-0.41,0.39l-38.81,15.95c-0.29,0.12-0.54,0.04-0.66-0.02
				c-0.12-0.06-0.34-0.21-0.42-0.51l-6.43-23.32l39.89-14.46h0.01l6.87,21.36C1246.05,1403.88,1246.04,1404.1,1245.94,1404.29z"/><path d="M1249.99,1404.41c-0.05,0.56-0.21,1.1-0.46,1.61c-0.36,0.76-0.92,1.4-1.62,1.86c-0.27,0.19-0.56,0.35-0.87,0.48
				l-38.62,15.87l-0.19,0.08c-0.58,0.24-1.2,0.36-1.82,0.36c-0.72,0-1.45-0.17-2.11-0.49c-0.53-0.26-1-0.62-1.39-1.04
				c-0.53-0.56-0.92-1.25-1.13-1.99l-6.33-23.01l-0.58-2.08c-0.27-0.95,0.21-1.92,1.08-2.33c0.1-0.05,0.21-0.09,0.32-0.12
				c1.06-0.3,2.15,0.33,2.44,1.4l0.49,1.78l6.43,23.32c0.08,0.3,0.3,0.45,0.42,0.51c0.12,0.06,0.37,0.14,0.66,0.02l38.81-15.95
				c0.23-0.1,0.36-0.27,0.41-0.39c0.1-0.19,0.11-0.41,0.05-0.61l-6.87-21.36h-0.01l-0.63-1.96c-0.33-1.03,0.22-2.12,1.23-2.49
				c0.02-0.01,0.04-0.01,0.06-0.02c0.01,0,0.01,0,0.02-0.01c1.05-0.32,2.15,0.26,2.49,1.3l0.59,1.84l6.92,21.49
				C1250,1403.1,1250.06,1403.77,1249.99,1404.41z"/><path d="M1269.72,1437.42c-1.13,6.49-6.5,11.38-15.97,14.53l-94.54,35.82l-1.12,0.42c-0.84,0.32-1.71,0.47-2.57,0.47
				c-0.1,0-0.2,0-0.3-0.01c-2.64-0.1-5.15-1.65-6.34-4.17c-4.79-10.06-2.09-21.81,6.34-28.76c0.59-0.5,1.2-0.96,1.85-1.4l2.14-1.46
				l43.71-29.72l3.44-2.33c0.12-0.08,0.24-0.14,0.36-0.19c0.86-0.36,1.88-0.08,2.41,0.72c0.62,0.92,0.39,2.15-0.53,2.77l-0.18,0.12
				l-49.12,33.39c-8.23,5.59-11.1,16.17-6.83,25.14c0.7,1.49,2.4,2.23,3.96,1.78c0.06-0.02,0.12-0.04,0.19-0.06
				c0.02-0.01,0.03-0.01,0.05-0.02l95.72-36.27c8.05-2.68,12.53-6.52,13.38-11.45c1.92-10.9-13.13-24.78-17.87-28.85
				c-0.86-0.73-1.38-1.14-1.41-1.17c-0.87-0.69-1.02-1.93-0.33-2.8c0.68-0.87,1.92-1.02,2.79-0.33c0.1,0.08,0.46,0.37,1.02,0.83
				C1254.51,1408.19,1272.08,1423.87,1269.72,1437.42z"/><g><path fill="#f59024" d="M1265.79,1436.74c-0.86,4.93-5.34,8.77-13.38,11.45l-95.72,36.27c-0.02,0.01-0.03,0.01-0.05,0.02
				c-0.07,0.02-0.13,0.04-0.19,0.06c-1.56,0.46-3.26-0.29-3.96-1.78c-4.27-8.98-1.4-19.56,6.83-25.14l49.12-33.39l38.62-15.87
				c0.31-0.13,0.6-0.29,0.87-0.48C1252.65,1411.95,1267.7,1425.84,1265.79,1436.74z"/><path d="M1159.21,1486.39v11.62c0,1.1-0.89,1.99-1.99,1.99c-1.1,0-1.99-0.9-1.99-1.99v-11.62c0-0.83,0.51-1.54,1.22-1.85
				c0.06-0.02,0.12-0.04,0.19-0.06c0.18-0.06,0.38-0.09,0.59-0.09C1158.32,1484.39,1159.21,1485.28,1159.21,1486.39z"/></g><g><path fill="#36509b" d="M1246.35,1375.45l-6.56,2.37c-0.01,0.01-0.01,0.01-0.02,0.01c-0.02,0.01-0.04,0.01-0.06,0.02l-43.42,15.75
				c-0.11,0.03-0.22,0.07-0.32,0.12l-10.67,3.86l-26.22-59.8c-0.03-0.07-0.06-0.14-0.1-0.21l-66.7-152.15
				c1.09-9.24,1.93-18.5,2.53-27.74l3.67-56.61c0.1-1.57,1.41-2.78,2.97-2.78h81.57L1246.35,1375.45z"/><path d="M1159.21,1338.53v118.13c0,1.1-0.89,1.99-1.99,1.99c-1.1,0-1.99-0.9-1.99-1.99v-118.13c0-1.11,0.9-1.99,1.99-1.99
				c0.76,0,1.42,0.42,1.76,1.04c0.04,0.07,0.07,0.14,0.1,0.21C1159.16,1338.01,1159.21,1338.26,1159.21,1338.53z"/></g><g><path d="M1157.22,932.73c-1.1,0-1.99-0.89-1.99-1.99v-35.5c0-1.1,0.89-1.99,1.99-1.99s1.99,0.89,1.99,1.99v35.5
				C1159.21,931.84,1158.32,932.73,1157.22,932.73z"/></g><g><path d="M662.83,1488.67c-1.1,0-1.99-0.89-1.99-1.99V895.24c0-1.1,0.89-1.99,1.99-1.99s1.99,0.89,1.99,1.99v591.43
				C664.83,1487.77,663.94,1488.67,662.83,1488.67z"/></g></g><g><path d="M1068.56,354.78c1.1,0,1.99,0.9,1.99,1.99c0,0.33,0.01,0.66,0.02,0.99c0.01,0.28,0.03,0.56,0.05,0.84
				c0.01,0.06,0.01,0.11,0.01,0.17h63.03c0.02-0.34,0.03-0.68,0.04-1.01c0.02-0.33,0.02-0.66,0.02-0.99c0-1.1,0.89-1.99,1.99-1.99
				H1068.56z M1113.6,322.53c-1.1-0.13-1.89-1.12-1.76-2.21l0.2-1.77h-19.73l0.2,1.77c0.13,1.1-0.66,2.08-1.75,2.21
				c-0.08,0.01-0.16,0.01-0.24,0.01h23.3C1113.75,322.54,1113.67,322.54,1113.6,322.53z M1140.44,318.55h-76.52
				c-1.1,0-1.99,0.9-1.99,1.99v36.23c0,1.11,0.9,1.99,1.99,1.99h76.52c1.11,0,1.99-0.89,1.99-1.99v-36.23
				C1142.44,319.45,1141.55,318.55,1140.44,318.55z M1065.92,354.78v-32.24h72.53v32.24H1065.92z"/><rect width="12.26" height="32.24" x="1065.92" y="322.54" fill="#f24049"/><rect width="60.27" height="32.24" x="1078.18" y="322.54" fill="#fe4c50"/><path fill="#f24049" d="M1108.6,391.09c-0.76,0.51-1.67,0.8-2.65,0.8h-6.95c-2.66,0-4.82-2.16-4.82-4.82c0-3.75-2.58-7-6.27-7.91
				c-11.81-2.91-16.59-12.39-17.26-20.39h12.26c0.68,8,5.46,17.47,17.26,20.39c3.69,0.91,6.27,4.16,6.27,7.91
				C1106.43,388.74,1107.29,390.22,1108.6,391.09z"/><path fill="#fe4c50" d="M1133.67,358.77c-0.5,7.58-4.05,16.53-16.94,20.05c-3.51,0.96-5.96,4.18-5.96,7.83v0.42
				c0,1.68-0.86,3.15-2.16,4.02c-1.31-0.87-2.16-2.34-2.16-4.02c0-3.75-2.58-7-6.27-7.91c-11.81-2.91-16.59-12.39-17.26-20.39
				H1133.67z"/><path d="M1137.72,356.78c0,0.68-0.02,1.35-0.06,1.99c-0.68,12.12-7.68,20.57-19.88,23.9c-1.79,0.49-3.03,2.12-3.03,3.98v0.42
				c0,1.79-0.53,3.43-1.44,4.82c-1.58,2.4-4.29,3.99-7.37,3.99h-6.95c-4.86,0-8.81-3.95-8.81-8.81c0-1.9-1.34-3.57-3.23-4.04
				c-13.2-3.25-19.57-14.19-20.32-24.26c-0.05-0.67-0.07-1.34-0.07-1.99c0-1.1,0.89-1.99,1.99-1.99c1.1,0,1.99,0.9,1.99,1.99
				c0,0.33,0.01,0.66,0.02,0.99c0.01,0.28,0.03,0.56,0.05,0.84c0.01,0.06,0.01,0.11,0.01,0.17c0.68,8,5.46,17.47,17.26,20.39
				c3.69,0.91,6.27,4.16,6.27,7.91c0,2.65,2.15,4.82,4.82,4.82h6.95c0.99,0,1.9-0.29,2.65-0.8c1.31-0.87,2.16-2.34,2.16-4.02v-0.42
				c0-3.65,2.45-6.87,5.96-7.83c12.9-3.52,16.45-12.47,16.94-20.05c0.02-0.34,0.03-0.68,0.04-1.01c0.02-0.33,0.02-0.66,0.02-0.99
				c0-1.1,0.89-1.99,1.99-1.99C1136.82,354.78,1137.72,355.68,1137.72,356.78z"/><path d="M1194.54,218.07c-2.58,14.67-7.94,28.89-15.91,42.27l-34.68,58.21l-1.52,2.54l-0.28,0.47c-0.57,0.95-1.8,1.26-2.73,0.7
				c-0.95-0.57-1.26-1.79-0.7-2.73l0.58-0.98l35.9-60.25c7.71-12.97,12.9-26.73,15.4-40.92c8.46-47.89-14.87-84.36-64-100.05
				c-4.77-1.53-9.62-2.59-14.5-3.19c-11.41-1.42-22.99-0.33-34.12,3.27c-40.43,13.09-61.82,38.96-65.36,79.08
				c-1.28,14.5,1.01,29.13,6.6,42.32c6.77,15.96,17.36,33.05,28.58,51.16c5.77,9.32,11.73,18.93,17.26,28.58
				c0.2,0.34,0.39,0.67,0.58,1.01c0.55,0.96,0.21,2.17-0.75,2.72c-0.31,0.18-0.65,0.26-0.99,0.26c-0.69,0-1.37-0.36-1.74-1.01
				c-0.09-0.15-0.17-0.3-0.26-0.45c-5.59-9.77-11.64-19.56-17.5-29.02c-11.3-18.23-21.97-35.47-28.86-51.7
				c-5.85-13.78-8.24-29.07-6.9-44.22c3.64-41.32,26.56-69.08,68.1-82.52c16.69-5.4,34.34-5.43,51.06-0.09
				c0.33,0.11,0.66,0.21,0.99,0.33C1179.37,130.38,1203.31,168.32,1194.54,218.07z"/><path d="M1103.97,230.86h-21.77l-1.85-15.98c-1.03-8.89-8.14-15.73-16.92-16.28c-6.42-0.4-12.28,2.24-15.67,7.07
				c-2.4,3.4-3.31,7.69-2.56,12.06c0.75,4.38,3.25,12.23,11.63,15.69c2.29,0.95,4.83,1.43,7.53,1.43h14.29l9.65,83.7l0.26,2.22
				c0.12,1.02,0.98,1.77,1.97,1.77c0.08,0,0.16,0,0.24-0.01c1.09-0.13,1.88-1.12,1.75-2.21l-0.2-1.77l-9.66-83.7h21.31
				c1.1,0,1.99-0.89,1.99-1.99C1105.96,231.76,1105.06,230.86,1103.97,230.86z M1064.35,230.86c-2.17,0-4.2-0.38-6-1.13
				c-6.27-2.59-8.48-8.32-9.23-12.67c-0.57-3.32,0.11-6.55,1.9-9.1c2.41-3.43,6.53-5.42,11.15-5.42c0.34,0,0.67,0.01,1.01,0.03
				c6.85,0.43,12.41,5.78,13.21,12.76l1.79,15.52H1064.35z"/><path fill="#fe4c50" d="M1078.18,230.86h-13.82c-2.17,0-4.2-0.38-6-1.13c-6.27-2.59-8.48-8.32-9.23-12.67
				c-0.57-3.32,0.11-6.55,1.9-9.1c2.41-3.43,6.53-5.42,11.15-5.42c0.34,0,0.67,0.01,1.01,0.03c6.85,0.43,12.41,5.78,13.21,12.76
				L1078.18,230.86z"/><path d="M1156.61,205.68c-3.39-4.83-9.25-7.47-15.67-7.07c-8.78,0.55-15.9,7.39-16.92,16.28l-1.85,15.98h-18.2
				c-1.11,0-1.99,0.9-1.99,1.99c0,1.11,0.89,1.99,1.99,1.99h17.74l-9.66,83.7l-0.2,1.77c-0.13,1.1,0.66,2.08,1.76,2.21
				c0.07,0.01,0.15,0.01,0.23,0.01c1,0,1.86-0.75,1.97-1.77l0.26-2.22l9.66-83.7h14.29c2.69,0,5.23-0.48,7.52-1.43
				c8.38-3.46,10.88-11.31,11.63-15.69C1159.92,213.37,1159.01,209.08,1156.61,205.68z M1155.24,217.07
				c-0.75,4.35-2.95,10.07-9.22,12.67c-1.82,0.75-3.83,1.13-6,1.13h-13.83l1.79-15.52c0.81-6.96,6.36-12.33,13.21-12.76
				c5.02-0.3,9.56,1.71,12.16,5.39C1155.14,210.52,1155.81,213.75,1155.24,217.07z"/><polygon fill="#fdc361" points="1121.71 234.85 1112.05 318.55 1092.32 318.55 1082.65 234.85"/><path fill="#f4b251" d="M1032.04,196.49c-1.28,14.5,1.01,29.13,6.6,42.32c6.77,15.96,17.36,33.05,28.58,51.16
				c5.77,9.32,11.73,18.93,17.26,28.58h-19.41c-5.54-9.65-11.49-19.27-17.26-28.58c-11.22-18.11-21.81-35.21-28.58-51.16
				c-5.59-13.18-7.88-27.82-6.6-42.32c3.54-40.12,24.92-65.99,65.36-79.08c11.13-3.6,22.71-4.69,34.12-3.27
				c-4.96,0.62-9.87,1.71-14.71,3.27C1056.96,130.49,1035.58,156.36,1032.04,196.49z"/><path fill="#fdc361" d="M1190.61,217.38c-2.5,14.19-7.69,27.96-15.4,40.92l-35.9,60.25h-23.24l9.66-83.7h14.29
				c2.69,0,5.23-0.48,7.52-1.43c8.38-3.46,10.88-11.31,11.63-15.69c0.75-4.37-0.16-8.66-2.56-12.06c-1.25-1.78-2.82-3.25-4.64-4.39
				c-3.13-1.97-6.97-2.93-11.03-2.68c-8.78,0.55-15.9,7.39-16.92,16.28l-1.85,15.98h-39.97l-1.85-15.98
				c-0.67-5.79-3.93-10.72-8.55-13.59c-2.46-1.54-5.32-2.49-8.38-2.68c-6.42-0.4-12.28,2.24-15.67,7.07
				c-2.4,3.4-3.31,7.69-2.56,12.06c0.75,4.38,3.25,12.23,11.63,15.69c2.29,0.95,4.83,1.43,7.53,1.43h14.29l9.65,83.7h-3.81
				c-5.54-9.65-11.49-19.27-17.26-28.58c-11.22-18.11-21.81-35.21-28.58-51.16c-5.59-13.18-7.88-27.82-6.6-42.32
				c3.54-40.12,24.92-65.99,65.36-79.08c4.84-1.57,9.75-2.65,14.71-3.27c4.88,0.6,9.73,1.67,14.5,3.19
				C1175.74,133.03,1199.06,169.49,1190.61,217.38z"/><path fill="#fe4c50" d="M1155.24,217.07c-0.75,4.35-2.95,10.07-9.22,12.67c-1.82,0.75-3.83,1.13-6,1.13h-13.83l1.79-15.52
				c0.81-6.96,6.36-12.33,13.21-12.76c5.02-0.3,9.56,1.71,12.16,5.39C1155.14,210.52,1155.81,213.75,1155.24,217.07z"/><path d="M983.85,276.2c-0.74,0-1.46-0.42-1.8-1.13c-0.48-0.99-0.06-2.18,0.93-2.66l25.19-12.12c0.99-0.47,2.19-0.06,2.66,0.93
				c0.48,0.99,0.06,2.18-0.93,2.66l-25.19,12.12C984.43,276.14,984.14,276.2,983.85,276.2z"/><path d="M993,208.12c-0.11,0-0.21-0.01-0.32-0.03l-51.33-8.32c-1.09-0.18-1.83-1.2-1.65-2.29c0.18-1.09,1.2-1.83,2.29-1.65
				l51.33,8.32c1.09,0.18,1.83,1.2,1.65,2.29C994.81,207.43,993.96,208.12,993,208.12z"/><path d="M1008.14,151.45c-0.36,0-0.72-0.1-1.05-0.3l-25.66-15.86c-0.94-0.58-1.23-1.81-0.65-2.75c0.58-0.94,1.81-1.23,2.75-0.65
				l25.66,15.86c0.94,0.58,1.23,1.81,0.65,2.75C1009.46,151.11,1008.81,151.45,1008.14,151.45z"/><path d="M1224.67,277.42c-0.3,0-0.61-0.07-0.9-0.22l-24.93-12.64c-0.98-0.5-1.38-1.7-0.88-2.68c0.5-0.98,1.7-1.37,2.68-0.88
				l24.93,12.64c0.98,0.5,1.38,1.7,0.88,2.68C1226.1,277.02,1225.4,277.42,1224.67,277.42z"/><path d="M1216.93,209.17c-0.98,0-1.83-0.72-1.97-1.72c-0.15-1.09,0.61-2.1,1.7-2.25l51.49-7.25c1.08-0.16,2.1,0.6,2.25,1.7
				c0.15,1.09-0.61,2.1-1.7,2.25l-51.49,7.25C1217.12,209.16,1217.03,209.17,1216.93,209.17z"/><path d="M1202.96,152.19c-0.68,0-1.35-0.35-1.72-0.98c-0.56-0.95-0.24-2.17,0.71-2.73l25.99-15.33c0.94-0.56,2.17-0.24,2.73,0.7
				c0.56,0.95,0.24,2.17-0.71,2.73l-25.99,15.33C1203.66,152.1,1203.31,152.19,1202.96,152.19z"/><path d="M1049.91,106.3c-0.65,0-1.29-0.32-1.68-0.91L1018.77,60c-0.6-0.92-0.34-2.16,0.59-2.76c0.92-0.6,2.16-0.34,2.76,0.59
				l29.47,45.39c0.6,0.92,0.34,2.16-0.59,2.76C1050.66,106.2,1050.28,106.3,1049.91,106.3z"/><path d="M1162.14,106.19c-0.39,0-0.78-0.11-1.12-0.34c-0.91-0.62-1.15-1.86-0.53-2.77l30.4-44.77c0.62-0.91,1.86-1.15,2.77-0.53
				c0.91,0.62,1.15,1.86,0.53,2.77l-30.4,44.77C1163.4,105.88,1162.78,106.19,1162.14,106.19z"/><path d="M1105.45,95.84c-1.1,0-1.99-0.89-1.99-1.99V68.18c0-1.1,0.89-1.99,1.99-1.99s1.99,0.89,1.99,1.99v25.66
				C1107.45,94.95,1106.55,95.84,1105.45,95.84z"/></g></svg>